solid OpenSCAD_Model
  facet normal 0.684892 0.684892 -0.24869
    outer loop
      vertex 5.51842 3.86157 0.763932
      vertex 2.77833 6.77833 1.25047
      vertex 5.60675 3.9499 1.25047
    endloop
  endfacet
  facet normal 0.684892 0.684892 -0.24869
    outer loop
      vertex 2.77833 6.77833 1.25047
      vertex 5.51842 3.86157 0.763932
      vertex 2.68999 6.68999 0.763932
    endloop
  endfacet
  facet normal 0.657451 0.657451 -0.368125
    outer loop
      vertex 5.51842 3.86157 0.763932
      vertex 2.55924 6.55924 0.296884
      vertex 2.68999 6.68999 0.763932
    endloop
  endfacet
  facet normal 0.657451 0.657451 -0.368126
    outer loop
      vertex 2.55924 6.55924 0.296884
      vertex 5.51842 3.86157 0.763932
      vertex 5.38766 3.73081 0.296884
    endloop
  endfacet
  facet normal 0.657451 0.657451 0.368125
    outer loop
      vertex 2.55924 6.55924 3.70312
      vertex 5.51842 3.86157 3.23607
      vertex 2.68999 6.68999 3.23607
    endloop
  endfacet
  facet normal 0.657451 0.657451 0.368126
    outer loop
      vertex 5.51842 3.86157 3.23607
      vertex 2.55924 6.55924 3.70312
      vertex 5.38766 3.73081 3.70312
    endloop
  endfacet
  facet normal 0.619643 0.619642 0.481753
    outer loop
      vertex 2.55924 6.55924 3.70312
      vertex 5.27225 3.6154 4
      vertex 5.38766 3.73081 3.70312
    endloop
  endfacet
  facet normal 0.619642 0.619642 0.481755
    outer loop
      vertex 5.27225 3.6154 4
      vertex 2.55924 6.55924 3.70312
      vertex 2.44383 6.44383 4
    endloop
  endfacet
  facet normal 0.684892 0.684892 0.24869
    outer loop
      vertex 2.77833 6.77833 2.74953
      vertex 5.51842 3.86157 3.23607
      vertex 5.60675 3.9499 2.74953
    endloop
  endfacet
  facet normal 0.684892 0.684892 0.24869
    outer loop
      vertex 5.51842 3.86157 3.23607
      vertex 2.77833 6.77833 2.74953
      vertex 2.68999 6.68999 3.23607
    endloop
  endfacet
  facet normal 0.707107 0.707107 -0
    outer loop
      vertex 5.65127 3.99442 1.74884
      vertex 2.82285 6.82285 2.25116
      vertex 5.65127 3.99442 2.25116
    endloop
  endfacet
  facet normal 0.707107 0.707107 0
    outer loop
      vertex 2.82285 6.82285 2.25116
      vertex 5.65127 3.99442 1.74884
      vertex 2.82285 6.82285 1.74884
    endloop
  endfacet
  facet normal 0.619643 0.619642 -0.481753
    outer loop
      vertex 5.27225 3.6154 1.33227e-15
      vertex 2.55924 6.55924 0.296884
      vertex 5.38766 3.73081 0.296884
    endloop
  endfacet
  facet normal 0.619642 0.619642 -0.481755
    outer loop
      vertex 2.55924 6.55924 0.296884
      vertex 5.27225 3.6154 1.33227e-15
      vertex 2.44383 6.44383 0
    endloop
  endfacet
  facet normal 0.701531 0.701531 0.125333
    outer loop
      vertex 2.82285 6.82285 2.25116
      vertex 5.60675 3.9499 2.74953
      vertex 5.65127 3.99442 2.25116
    endloop
  endfacet
  facet normal 0.701531 0.701531 0.125333
    outer loop
      vertex 5.60675 3.9499 2.74953
      vertex 2.82285 6.82285 2.25116
      vertex 2.77833 6.77833 2.74953
    endloop
  endfacet
  facet normal -0.701531 -0.701531 -0.125333
    outer loop
      vertex 0.0500995 -1.60675 1.25047
      vertex -2.82285 1.17715 1.74884
      vertex -2.77833 1.22167 1.25047
    endloop
  endfacet
  facet normal -0.701531 -0.701531 -0.125333
    outer loop
      vertex -2.82285 1.17715 1.74884
      vertex 0.0500995 -1.60675 1.25047
      vertex 0.00558159 -1.65127 1.74884
    endloop
  endfacet
  facet normal 0.701531 0.701531 -0.125333
    outer loop
      vertex 5.60675 3.9499 1.25047
      vertex 2.82285 6.82285 1.74884
      vertex 5.65127 3.99442 1.74884
    endloop
  endfacet
  facet normal 0.701531 0.701531 -0.125333
    outer loop
      vertex 2.82285 6.82285 1.74884
      vertex 5.60675 3.9499 1.25047
      vertex 2.77833 6.77833 1.25047
    endloop
  endfacet
  facet normal 0.707107 -0.707107 3.36657e-07
    outer loop
      vertex 0.00558159 -1.65127 2.25116
      vertex 5.65127 3.99442 2.25116
      vertex 5.60675 3.9499 2.74953
    endloop
  endfacet
  facet normal 0.707107 -0.707107 0
    outer loop
      vertex 5.65127 3.99442 2.25116
      vertex 0.00558159 -1.65127 2.25116
      vertex 5.65127 3.99442 1.74884
    endloop
  endfacet
  facet normal 0.707107 -0.707107 -3.44607e-07
    outer loop
      vertex 0.0500995 -1.60675 2.74953
      vertex 5.60675 3.9499 2.74953
      vertex 5.51842 3.86157 3.23607
    endloop
  endfacet
  facet normal 0.707107 -0.707107 0
    outer loop
      vertex 0.00558159 -1.65127 1.74884
      vertex 5.65127 3.99442 1.74884
      vertex 0.00558159 -1.65127 2.25116
    endloop
  endfacet
  facet normal 0.707107 -0.707107 3.54932e-07
    outer loop
      vertex 0.138433 -1.51842 3.23607
      vertex 5.51842 3.86157 3.23607
      vertex 5.38766 3.73081 3.70312
    endloop
  endfacet
  facet normal 0.707107 -0.707107 -3.36657e-07
    outer loop
      vertex 5.65127 3.99442 1.74884
      vertex 0.00558159 -1.65127 1.74884
      vertex 5.60675 3.9499 1.25047
    endloop
  endfacet
  facet normal 0.707107 -0.707107 -5.66256e-07
    outer loop
      vertex 0.26919 -1.38766 3.70312
      vertex 5.38766 3.73081 3.70312
      vertex 5.27225 3.6154 4
    endloop
  endfacet
  facet normal 0.707107 -0.707107 -1.49253e-08
    outer loop
      vertex 0.0500995 -1.60675 1.25047
      vertex 5.60675 3.9499 1.25047
      vertex 0.00558159 -1.65127 1.74884
    endloop
  endfacet
  facet normal 0.707107 -0.707107 -6.09258e-08
    outer loop
      vertex 0.26919 -1.38766 3.70312
      vertex 5.27225 3.6154 4
      vertex 0.384599 -1.27225 4
    endloop
  endfacet
  facet normal 0.707107 -0.707107 6.6528e-08
    outer loop
      vertex 5.38766 3.73081 3.70312
      vertex 0.26919 -1.38766 3.70312
      vertex 0.138433 -1.51842 3.23607
    endloop
  endfacet
  facet normal 0.707107 -0.707107 1.47395e-08
    outer loop
      vertex 5.51842 3.86157 3.23607
      vertex 0.138433 -1.51842 3.23607
      vertex 0.0500995 -1.60675 2.74953
    endloop
  endfacet
  facet normal 0.707107 -0.707107 1.49253e-08
    outer loop
      vertex 5.60675 3.9499 2.74953
      vertex 0.0500995 -1.60675 2.74953
      vertex 0.00558159 -1.65127 2.25116
    endloop
  endfacet
  facet normal 0.707107 -0.707107 3.44607e-07
    outer loop
      vertex 5.60675 3.9499 1.25047
      vertex 0.0500995 -1.60675 1.25047
      vertex 5.51842 3.86157 0.763932
    endloop
  endfacet
  facet normal 0.707107 -0.707107 6.09258e-08
    outer loop
      vertex 5.27225 3.6154 1.33227e-15
      vertex 0.26919 -1.38766 0.296884
      vertex 0.384599 -1.27225 1.33227e-15
    endloop
  endfacet
  facet normal 0.707107 -0.707107 -6.6528e-08
    outer loop
      vertex 0.26919 -1.38766 0.296884
      vertex 5.38766 3.73081 0.296884
      vertex 0.138433 -1.51842 0.763932
    endloop
  endfacet
  facet normal 0.707107 -0.707107 5.66256e-07
    outer loop
      vertex 5.38766 3.73081 0.296884
      vertex 0.26919 -1.38766 0.296884
      vertex 5.27225 3.6154 1.33227e-15
    endloop
  endfacet
  facet normal 0.707107 -0.707107 -1.47395e-08
    outer loop
      vertex 0.138433 -1.51842 0.763932
      vertex 5.51842 3.86157 0.763932
      vertex 0.0500995 -1.60675 1.25047
    endloop
  endfacet
  facet normal 0.707107 -0.707107 -3.54932e-07
    outer loop
      vertex 5.51842 3.86157 0.763932
      vertex 0.138433 -1.51842 0.763932
      vertex 5.38766 3.73081 0.296884
    endloop
  endfacet
  facet normal -0.657451 -0.657451 0.368126
    outer loop
      vertex -2.68999 1.31001 3.23607
      vertex 0.26919 -1.38766 3.70312
      vertex -2.55924 1.44076 3.70312
    endloop
  endfacet
  facet normal -0.657451 -0.657451 0.368126
    outer loop
      vertex 0.26919 -1.38766 3.70312
      vertex -2.68999 1.31001 3.23607
      vertex 0.138433 -1.51842 3.23607
    endloop
  endfacet
  facet normal -0.684892 -0.684892 0.24869
    outer loop
      vertex -2.77833 1.22167 2.74953
      vertex 0.138433 -1.51842 3.23607
      vertex -2.68999 1.31001 3.23607
    endloop
  endfacet
  facet normal -0.684892 -0.684892 0.24869
    outer loop
      vertex 0.138433 -1.51842 3.23607
      vertex -2.77833 1.22167 2.74953
      vertex 0.0500995 -1.60675 2.74953
    endloop
  endfacet
  facet normal -0.701531 -0.701531 0.125333
    outer loop
      vertex -2.82285 1.17715 2.25116
      vertex 0.0500995 -1.60675 2.74953
      vertex -2.77833 1.22167 2.74953
    endloop
  endfacet
  facet normal -0.701531 -0.701531 0.125333
    outer loop
      vertex 0.0500995 -1.60675 2.74953
      vertex -2.82285 1.17715 2.25116
      vertex 0.00558159 -1.65127 2.25116
    endloop
  endfacet
  facet normal -0.657451 -0.657451 -0.368126
    outer loop
      vertex 0.26919 -1.38766 0.296884
      vertex -2.68999 1.31001 0.763932
      vertex -2.55924 1.44076 0.296884
    endloop
  endfacet
  facet normal -0.657451 -0.657451 -0.368126
    outer loop
      vertex -2.68999 1.31001 0.763932
      vertex 0.26919 -1.38766 0.296884
      vertex 0.138433 -1.51842 0.763932
    endloop
  endfacet
  facet normal -0.684892 -0.684892 -0.24869
    outer loop
      vertex 0.138433 -1.51842 0.763932
      vertex -2.77833 1.22167 1.25047
      vertex -2.68999 1.31001 0.763932
    endloop
  endfacet
  facet normal -0.684892 -0.684892 -0.24869
    outer loop
      vertex -2.77833 1.22167 1.25047
      vertex 0.138433 -1.51842 0.763932
      vertex 0.0500995 -1.60675 1.25047
    endloop
  endfacet
  facet normal -0.619642 -0.619642 -0.481754
    outer loop
      vertex 0.384599 -1.27225 1.33227e-15
      vertex -2.55924 1.44076 0.296884
      vertex -2.44383 1.55617 0
    endloop
  endfacet
  facet normal -0.619642 -0.619642 -0.481754
    outer loop
      vertex -2.55924 1.44076 0.296884
      vertex 0.384599 -1.27225 1.33227e-15
      vertex 0.26919 -1.38766 0.296884
    endloop
  endfacet
  facet normal -0.707107 -0.707107 0
    outer loop
      vertex 0.00558159 -1.65127 1.74884
      vertex -2.82285 1.17715 2.25116
      vertex -2.82285 1.17715 1.74884
    endloop
  endfacet
  facet normal -0.707107 -0.707107 0
    outer loop
      vertex -2.82285 1.17715 2.25116
      vertex 0.00558159 -1.65127 1.74884
      vertex 0.00558159 -1.65127 2.25116
    endloop
  endfacet
  facet normal -0.619642 -0.619642 0.481754
    outer loop
      vertex -2.55924 1.44076 3.70312
      vertex 0.384599 -1.27225 4
      vertex -2.44383 1.55617 4
    endloop
  endfacet
  facet normal -0.619642 -0.619642 0.481754
    outer loop
      vertex 0.384599 -1.27225 4
      vertex -2.55924 1.44076 3.70312
      vertex 0.26919 -1.38766 3.70312
    endloop
  endfacet
  facet normal -0.707107 0.707107 1.13229e-07
    outer loop
      vertex 2.55924 6.55924 3.70312
      vertex 1.86504 5.86504 4
      vertex 2.44383 6.44383 4
    endloop
  endfacet
  facet normal -0.707107 0.707107 7.72372e-08
    outer loop
      vertex 2.68999 6.68999 3.23607
      vertex 1.86504 5.86504 4
      vertex 2.55924 6.55924 3.70312
    endloop
  endfacet
  facet normal -0.707107 0.707107 -3.71929e-07
    outer loop
      vertex 2.77833 6.77833 2.74953
      vertex 1.86504 5.86504 4
      vertex 2.68999 6.68999 3.23607
    endloop
  endfacet
  facet normal -0.707106 0.707107 4.22996e-07
    outer loop
      vertex 2.82285 6.82285 2.25116
      vertex 1.86504 5.86504 4
      vertex 2.77833 6.77833 2.74953
    endloop
  endfacet
  facet normal -0.707107 0.707107 0
    outer loop
      vertex 2.82285 6.82285 1.74884
      vertex 1.86504 5.86504 4
      vertex 2.82285 6.82285 2.25116
    endloop
  endfacet
  facet normal -0.707106 0.707107 -4.22996e-07
    outer loop
      vertex 1.86504 5.86504 0
      vertex 2.82285 6.82285 1.74884
      vertex 2.77833 6.77833 1.25047
    endloop
  endfacet
  facet normal -0.707107 0.707107 3.71929e-07
    outer loop
      vertex 1.86504 5.86504 0
      vertex 2.77833 6.77833 1.25047
      vertex 2.68999 6.68999 0.763932
    endloop
  endfacet
  facet normal -0.707107 0.707107 -7.72372e-08
    outer loop
      vertex 1.86504 5.86504 0
      vertex 2.68999 6.68999 0.763932
      vertex 2.55924 6.55924 0.296884
    endloop
  endfacet
  facet normal -0.707107 0.707107 -1.13229e-07
    outer loop
      vertex 1.86504 5.86504 0
      vertex 2.55924 6.55924 0.296884
      vertex 2.44383 6.44383 0
    endloop
  endfacet
  facet normal -0.707107 0.707107 0
    outer loop
      vertex 2.82285 6.82285 1.74884
      vertex 1.86504 5.86504 0
      vertex 1.86504 5.86504 4
    endloop
  endfacet
  facet normal -0.707107 0.707107 -6.15382e-07
    outer loop
      vertex -2.55924 1.44076 0.296884
      vertex -1.06487 2.93513 0
      vertex -2.44383 1.55617 0
    endloop
  endfacet
  facet normal -0.707107 0.707107 3.82222e-07
    outer loop
      vertex -2.68999 1.31001 0.763932
      vertex -1.06487 2.93513 0
      vertex -2.55924 1.44076 0.296884
    endloop
  endfacet
  facet normal -0.707107 0.707107 -2.10007e-07
    outer loop
      vertex -2.77833 1.22167 1.25047
      vertex -1.06487 2.93513 0
      vertex -2.68999 1.31001 0.763932
    endloop
  endfacet
  facet normal -0.707107 0.707107 1.76235e-07
    outer loop
      vertex -2.82285 1.17715 1.74884
      vertex -1.06487 2.93513 0
      vertex -2.77833 1.22167 1.25047
    endloop
  endfacet
  facet normal -0.707107 0.707107 0
    outer loop
      vertex -1.06487 2.93513 0
      vertex -2.82285 1.17715 1.74884
      vertex -1.06487 2.93513 4
    endloop
  endfacet
  facet normal -0.707107 0.707107 6.15382e-07
    outer loop
      vertex -1.06487 2.93513 4
      vertex -2.55924 1.44076 3.70312
      vertex -2.44383 1.55617 4
    endloop
  endfacet
  facet normal -0.707107 0.707107 2.10007e-07
    outer loop
      vertex -2.68999 1.31001 3.23607
      vertex -1.06487 2.93513 4
      vertex -2.77833 1.22167 2.74953
    endloop
  endfacet
  facet normal -0.707107 0.707107 -3.82222e-07
    outer loop
      vertex -2.55924 1.44076 3.70312
      vertex -1.06487 2.93513 4
      vertex -2.68999 1.31001 3.23607
    endloop
  endfacet
  facet normal -0.707107 0.707107 0
    outer loop
      vertex -2.82285 1.17715 2.25116
      vertex -1.06487 2.93513 4
      vertex -2.82285 1.17715 1.74884
    endloop
  endfacet
  facet normal -0.707107 0.707107 -1.76235e-07
    outer loop
      vertex -1.06487 2.93513 4
      vertex -2.82285 1.17715 2.25116
      vertex -2.77833 1.22167 2.74953
    endloop
  endfacet
  facet normal 2.35514e-16 -2.35514e-16 -1
    outer loop
      vertex 1.80965 5.44531 8.58057e-17
      vertex 2.44383 6.44383 0
      vertex 5.27225 3.6154 1.33227e-15
    endloop
  endfacet
  facet normal 2.35514e-16 -2.35514e-16 -1
    outer loop
      vertex 2.44383 6.44383 0
      vertex 1.80965 5.44531 8.58057e-17
      vertex 1.86504 5.86504 0
    endloop
  endfacet
  facet normal 2.35514e-16 -2.35514e-16 -1
    outer loop
      vertex 5.27225 3.6154 1.33227e-15
      vertex 1.68864 4.78503 2.12813e-16
      vertex 1.80965 5.44531 8.58057e-17
    endloop
  endfacet
  facet normal 2.35514e-16 -2.35514e-16 -1
    outer loop
      vertex 5.27225 3.6154 1.33227e-15
      vertex 1.54102 4.17545 3.21611e-16
      vertex 1.68864 4.78503 2.12813e-16
    endloop
  endfacet
  facet normal 2.35514e-16 -2.35514e-16 -1
    outer loop
      vertex 5.27225 3.6154 1.33227e-15
      vertex 1.36908 3.62617 4.10478e-16
      vertex 1.54102 4.17545 3.21611e-16
    endloop
  endfacet
  facet normal 2.35514e-16 -2.35514e-16 -1
    outer loop
      vertex 5.27225 3.6154 1.33227e-15
      vertex 1.17557 3.14589 4.78017e-16
      vertex 1.36908 3.62617 4.10478e-16
    endloop
  endfacet
  facet normal 2.35514e-16 -2.35514e-16 -1
    outer loop
      vertex 5.27225 3.6154 1.33227e-15
      vertex 0.963501 2.74216 5.23157e-16
      vertex 1.17557 3.14589 4.78017e-16
    endloop
  endfacet
  facet normal 2.35514e-16 -2.35514e-16 -1
    outer loop
      vertex 5.27225 3.6154 1.33227e-15
      vertex 0.736237 2.42134 5.4519e-16
      vertex 0.963501 2.74216 5.23157e-16
    endloop
  endfacet
  facet normal 2.35514e-16 -2.35514e-16 -1
    outer loop
      vertex 0.384599 -1.27225 1.33227e-15
      vertex 0.736237 2.42134 5.4519e-16
      vertex 5.27225 3.6154 1.33227e-15
    endloop
  endfacet
  facet normal 2.35514e-16 -2.35514e-16 -1
    outer loop
      vertex 0.736237 2.42134 5.4519e-16
      vertex 0.384599 -1.27225 1.33227e-15
      vertex 0.497375 2.18849 5.43774e-16
    endloop
  endfacet
  facet normal 2.35514e-16 -2.35514e-16 -1
    outer loop
      vertex 0.384599 -1.27225 1.33227e-15
      vertex 0.250656 2.0473 5.1892e-16
      vertex 0.497375 2.18849 5.43774e-16
    endloop
  endfacet
  facet normal 2.35514e-16 -2.35514e-16 -1
    outer loop
      vertex 0.384599 -1.27225 1.33227e-15
      vertex 0 2 4.71028e-16
      vertex 0.250656 2.0473 5.1892e-16
    endloop
  endfacet
  facet normal 2.35514e-16 -2.35514e-16 -1
    outer loop
      vertex 0.384599 -1.27225 1.33227e-15
      vertex -0.250656 2.0473 4.00854e-16
      vertex 0 2 4.71028e-16
    endloop
  endfacet
  facet normal 2.35514e-16 -2.35514e-16 -1
    outer loop
      vertex -2.44383 1.55617 0
      vertex -0.250656 2.0473 4.00854e-16
      vertex 0.384599 -1.27225 1.33227e-15
    endloop
  endfacet
  facet normal 2.35514e-16 -2.35514e-16 -1
    outer loop
      vertex -0.250656 2.0473 4.00854e-16
      vertex -2.44383 1.55617 0
      vertex -0.497375 2.18849 3.09496e-16
    endloop
  endfacet
  facet normal 2.35514e-16 -2.35514e-16 -1
    outer loop
      vertex -0.497375 2.18849 3.09496e-16
      vertex -2.44383 1.55617 0
      vertex -0.736237 2.42134 1.98402e-16
    endloop
  endfacet
  facet normal 2.35514e-16 -2.35514e-16 -1
    outer loop
      vertex -0.736237 2.42134 1.98402e-16
      vertex -2.44383 1.55617 0
      vertex -0.963501 2.74216 6.93216e-17
    endloop
  endfacet
  facet normal 2.35514e-16 -2.35514e-16 -1
    outer loop
      vertex -0.963501 2.74216 6.93216e-17
      vertex -2.44383 1.55617 0
      vertex -1.06487 2.93513 0
    endloop
  endfacet
  facet normal -0 0 1
    outer loop
      vertex 1.86504 5.86504 4
      vertex 5.27225 3.6154 4
      vertex 2.44383 6.44383 4
    endloop
  endfacet
  facet normal 0 0 1
    outer loop
      vertex -1.06487 2.93513 4
      vertex 5.27225 3.6154 4
      vertex 1.86504 5.86504 4
    endloop
  endfacet
  facet normal 0 0 1
    outer loop
      vertex 5.27225 3.6154 4
      vertex -1.06487 2.93513 4
      vertex 0.384599 -1.27225 4
    endloop
  endfacet
  facet normal 0 0 1
    outer loop
      vertex 0.384599 -1.27225 4
      vertex -1.06487 2.93513 4
      vertex -2.44383 1.55617 4
    endloop
  endfacet
  facet normal 0 0 -1
    outer loop
      vertex -1.81308 3.31544 0
      vertex -1.64822 4.61812 0
      vertex -1.57294 3.4122 0
    endloop
  endfacet
  facet normal 0 0 -1
    outer loop
      vertex -1.81308 3.31544 0
      vertex -1.81308 4.68454 0
      vertex -1.64822 4.61812 0
    endloop
  endfacet
  facet normal 0 0 -1
    outer loop
      vertex -2.08772 3.22948 0
      vertex -1.81308 4.68454 0
      vertex -1.81308 3.31544 0
    endloop
  endfacet
  facet normal 0 0 -1
    outer loop
      vertex -2.08772 3.22948 0
      vertex -2.08772 4.77051 0
      vertex -1.81308 4.68454 0
    endloop
  endfacet
  facet normal 0 0 -1
    outer loop
      vertex -2.39252 3.15567 0
      vertex -2.08772 4.77051 0
      vertex -2.08772 3.22948 0
    endloop
  endfacet
  facet normal 0 0 -1
    outer loop
      vertex -2.39252 3.15567 0
      vertex -2.39252 4.84431 0
      vertex -2.08772 4.77051 0
    endloop
  endfacet
  facet normal 0 0 -1
    outer loop
      vertex -2.72266 3.09517 0
      vertex -2.39252 4.84431 0
      vertex -2.39252 3.15567 0
    endloop
  endfacet
  facet normal 0 0 -1
    outer loop
      vertex -2.72266 3.09517 0
      vertex -2.72266 4.90482 0
      vertex -2.39252 4.84431 0
    endloop
  endfacet
  facet normal 0 0 -1
    outer loop
      vertex -3.07294 3.04893 0
      vertex -2.72266 4.90482 0
      vertex -2.72266 3.09517 0
    endloop
  endfacet
  facet normal 0 0 -1
    outer loop
      vertex -3.07294 3.04893 0
      vertex -3.07294 4.95105 0
      vertex -2.72266 4.90482 0
    endloop
  endfacet
  facet normal 0 0 -1
    outer loop
      vertex -3.43785 3.0177 0
      vertex -3.07294 4.95105 0
      vertex -3.07294 3.04893 0
    endloop
  endfacet
  facet normal 0 0 -1
    outer loop
      vertex -3.43785 3.0177 0
      vertex -3.43785 4.98228 0
      vertex -3.07294 4.95105 0
    endloop
  endfacet
  facet normal 0 0 -1
    outer loop
      vertex -3.81161 3.00197 0
      vertex -3.43785 4.98228 0
      vertex -3.43785 3.0177 0
    endloop
  endfacet
  facet normal 0 0 -1
    outer loop
      vertex -3.81161 3.00197 0
      vertex -3.81161 4.99802 0
      vertex -3.43785 4.98228 0
    endloop
  endfacet
  facet normal 0 0 -1
    outer loop
      vertex -4.18837 3.00197 0
      vertex -3.81161 4.99802 0
      vertex -3.81161 3.00197 0
    endloop
  endfacet
  facet normal 0 0 -1
    outer loop
      vertex -4.18837 3.00197 0
      vertex -4.18837 4.99802 0
      vertex -3.81161 4.99802 0
    endloop
  endfacet
  facet normal 0 0 -1
    outer loop
      vertex -4.56213 3.0177 0
      vertex -4.18837 4.99802 0
      vertex -4.18837 3.00197 0
    endloop
  endfacet
  facet normal 0 0 -1
    outer loop
      vertex -4.56213 3.0177 0
      vertex -4.56213 4.98228 0
      vertex -4.18837 4.99802 0
    endloop
  endfacet
  facet normal 0 0 -1
    outer loop
      vertex -4.92705 3.04893 0
      vertex -4.56213 4.98228 0
      vertex -4.56213 3.0177 0
    endloop
  endfacet
  facet normal 0 0 -1
    outer loop
      vertex -4.92705 3.04893 0
      vertex -4.92705 4.95105 0
      vertex -4.56213 4.98228 0
    endloop
  endfacet
  facet normal 0 0 -1
    outer loop
      vertex -5.27733 3.09517 0
      vertex -4.92705 4.95105 0
      vertex -4.92705 3.04893 0
    endloop
  endfacet
  facet normal 0 0 -1
    outer loop
      vertex -5.27733 3.09517 0
      vertex -5.27733 4.90482 0
      vertex -4.92705 4.95105 0
    endloop
  endfacet
  facet normal 0 0 -1
    outer loop
      vertex -5.60747 3.15567 0
      vertex -5.27733 4.90482 0
      vertex -5.27733 3.09517 0
    endloop
  endfacet
  facet normal 0 0 -1
    outer loop
      vertex -5.60747 3.15567 0
      vertex -5.60747 4.84431 0
      vertex -5.27733 4.90482 0
    endloop
  endfacet
  facet normal 0 0 -1
    outer loop
      vertex -5.91226 3.22948 0
      vertex -5.60747 4.84431 0
      vertex -5.60747 3.15567 0
    endloop
  endfacet
  facet normal 0 0 -1
    outer loop
      vertex -5.91226 3.22948 0
      vertex -5.91226 4.77051 0
      vertex -5.60747 4.84431 0
    endloop
  endfacet
  facet normal 0 0 -1
    outer loop
      vertex -6.1869 3.31544 0
      vertex -5.91226 4.77051 0
      vertex -5.91226 3.22948 0
    endloop
  endfacet
  facet normal 0 0 -1
    outer loop
      vertex -6.1869 3.31544 0
      vertex -6.1869 4.68454 0
      vertex -5.91226 4.77051 0
    endloop
  endfacet
  facet normal 0 0 -1
    outer loop
      vertex -6.42705 3.4122 0
      vertex -6.1869 4.68454 0
      vertex -6.1869 3.31544 0
    endloop
  endfacet
  facet normal 0 0 -1
    outer loop
      vertex -6.42705 3.4122 0
      vertex -6.42705 4.58778 0
      vertex -6.1869 4.68454 0
    endloop
  endfacet
  facet normal 0 0 -1
    outer loop
      vertex -6.62891 3.51823 0
      vertex -6.42705 4.58778 0
      vertex -6.42705 3.4122 0
    endloop
  endfacet
  facet normal 0 0 -1
    outer loop
      vertex -6.62891 3.51823 0
      vertex -6.62891 4.48175 0
      vertex -6.42705 4.58778 0
    endloop
  endfacet
  facet normal 0 0 -1
    outer loop
      vertex -6.78932 3.63187 0
      vertex -6.62891 4.48175 0
      vertex -6.62891 3.51823 0
    endloop
  endfacet
  facet normal 0 0 -1
    outer loop
      vertex -6.78932 3.63187 0
      vertex -6.78932 4.36812 0
      vertex -6.62891 4.48175 0
    endloop
  endfacet
  facet normal 0 0 -1
    outer loop
      vertex -6.90575 3.7513 0
      vertex -6.78932 4.36812 0
      vertex -6.78932 3.63187 0
    endloop
  endfacet
  facet normal 0 0 -1
    outer loop
      vertex -6.90575 3.7513 0
      vertex -6.90575 4.24869 0
      vertex -6.78932 4.36812 0
    endloop
  endfacet
  facet normal 0 0 -1
    outer loop
      vertex -6.97633 3.87466 0
      vertex -6.90575 4.24869 0
      vertex -6.90575 3.7513 0
    endloop
  endfacet
  facet normal 0 0 -1
    outer loop
      vertex -6.97633 3.87466 0
      vertex -6.97633 4.12532 0
      vertex -6.90575 4.24869 0
    endloop
  endfacet
  facet normal 0 -0 -1
    outer loop
      vertex -6.97633 4.12532 0
      vertex -6.97633 3.87466 0
      vertex -7 4 0
    endloop
  endfacet
  facet normal 0 0 -1
    outer loop
      vertex -1.99605 8.00992 0
      vertex 1.99605 7.62325 0
      vertex 1.96457 6.8757 0
    endloop
  endfacet
  facet normal 0 0 -1
    outer loop
      vertex 1.99605 7.62325 0
      vertex -1.99605 8.00992 0
      vertex 1.99605 8.37674 0
    endloop
  endfacet
  facet normal 0 0 -1
    outer loop
      vertex -1.99605 8.00992 0
      vertex 1.96457 6.8757 0
      vertex 1.9021 6.14589 0
    endloop
  endfacet
  facet normal 0 0 -1
    outer loop
      vertex -1.99605 8.37674 0
      vertex 1.99605 8.37674 0
      vertex -1.99605 8.00992 0
    endloop
  endfacet
  facet normal 0 0 -1
    outer loop
      vertex -1.66586 4.69093 0
      vertex 1.9021 6.14589 0
      vertex 1.86504 5.86504 0
    endloop
  endfacet
  facet normal 0 0 -1
    outer loop
      vertex -1.66586 4.69093 0
      vertex 1.86504 5.86504 0
      vertex 1.80965 5.44531 0
    endloop
  endfacet
  facet normal 0 0 -1
    outer loop
      vertex 1.99605 8.37674 0
      vertex -1.99605 8.37674 0
      vertex 1.96457 9.12428 0
    endloop
  endfacet
  facet normal 0 0 -1
    outer loop
      vertex -1.66586 4.69093 0
      vertex 1.80965 5.44531 0
      vertex 1.68864 4.78503 0
    endloop
  endfacet
  facet normal 0 -0 -1
    outer loop
      vertex -1.96457 9.12428 0
      vertex 1.96457 9.12428 0
      vertex -1.99605 8.37674 0
    endloop
  endfacet
  facet normal 0 0 -1
    outer loop
      vertex -1.64822 4.61812 0
      vertex 1.68864 4.78503 0
      vertex 1.54102 4.17545 0
    endloop
  endfacet
  facet normal 0 0 -1
    outer loop
      vertex 1.96457 9.12428 0
      vertex -1.96457 9.12428 0
      vertex 1.9021 9.8541 0
    endloop
  endfacet
  facet normal 0 0 -1
    outer loop
      vertex -1.33569 3.5433 0
      vertex 1.54102 4.17545 0
      vertex 1.36908 3.62617 0
    endloop
  endfacet
  facet normal 0 -0 -1
    outer loop
      vertex -1.9021 9.8541 0
      vertex 1.9021 9.8541 0
      vertex -1.96457 9.12428 0
    endloop
  endfacet
  facet normal 0 0 -1
    outer loop
      vertex -1.33569 3.5433 0
      vertex 1.36908 3.62617 0
      vertex 1.17557 3.14589 0
    endloop
  endfacet
  facet normal 0 0 -1
    outer loop
      vertex 1.9021 9.8541 0
      vertex -1.9021 9.8541 0
      vertex 1.80965 10.5547 0
    endloop
  endfacet
  facet normal 0 0 -1
    outer loop
      vertex -1.06487 2.93513 0
      vertex 1.17557 3.14589 0
      vertex 0.963501 2.74216 0
    endloop
  endfacet
  facet normal 0 -0 -1
    outer loop
      vertex -1.80965 10.5547 0
      vertex 1.80965 10.5547 0
      vertex -1.9021 9.8541 0
    endloop
  endfacet
  facet normal 0 0 -1
    outer loop
      vertex -0.963501 2.74216 0
      vertex 0.963501 2.74216 0
      vertex 0.736237 2.42134 0
    endloop
  endfacet
  facet normal 0 0 -1
    outer loop
      vertex 1.80965 10.5547 0
      vertex -1.80965 10.5547 0
      vertex 1.68864 11.215 0
    endloop
  endfacet
  facet normal 0 0 -1
    outer loop
      vertex -0.736237 2.42134 0
      vertex 0.736237 2.42134 0
      vertex 0.497375 2.18849 0
    endloop
  endfacet
  facet normal 0 -0 -1
    outer loop
      vertex -1.68864 11.215 0
      vertex 1.68864 11.215 0
      vertex -1.80965 10.5547 0
    endloop
  endfacet
  facet normal 0 0 -1
    outer loop
      vertex -0.497375 2.18849 0
      vertex 0.497375 2.18849 0
      vertex 0.250656 2.0473 0
    endloop
  endfacet
  facet normal 0 0 -1
    outer loop
      vertex 1.68864 11.215 0
      vertex -1.68864 11.215 0
      vertex 1.54102 11.8245 0
    endloop
  endfacet
  facet normal 0 0 -1
    outer loop
      vertex -0.250656 2.0473 0
      vertex 0.250656 2.0473 0
      vertex 0 2 0
    endloop
  endfacet
  facet normal 0 -0 -1
    outer loop
      vertex -1.54102 11.8245 0
      vertex 1.54102 11.8245 0
      vertex -1.68864 11.215 0
    endloop
  endfacet
  facet normal 0 0 -1
    outer loop
      vertex 0.250656 2.0473 0
      vertex -0.250656 2.0473 0
      vertex -0.497375 2.18849 0
    endloop
  endfacet
  facet normal 0 0 -1
    outer loop
      vertex 1.54102 11.8245 0
      vertex -1.54102 11.8245 0
      vertex 1.36908 12.3738 0
    endloop
  endfacet
  facet normal 0 0 -1
    outer loop
      vertex 0.497375 2.18849 0
      vertex -0.497375 2.18849 0
      vertex -0.736237 2.42134 0
    endloop
  endfacet
  facet normal 0 -0 -1
    outer loop
      vertex -1.36908 12.3738 0
      vertex 1.36908 12.3738 0
      vertex -1.54102 11.8245 0
    endloop
  endfacet
  facet normal 0 0 -1
    outer loop
      vertex 0.736237 2.42134 0
      vertex -0.736237 2.42134 0
      vertex -0.963501 2.74216 0
    endloop
  endfacet
  facet normal 0 0 -1
    outer loop
      vertex 1.36908 12.3738 0
      vertex -1.36908 12.3738 0
      vertex 1.17557 12.8541 0
    endloop
  endfacet
  facet normal 0 0 -1
    outer loop
      vertex 0.963501 2.74216 0
      vertex -0.963501 2.74216 0
      vertex -1.06487 2.93513 0
    endloop
  endfacet
  facet normal 0 0 -1
    outer loop
      vertex 1.17557 12.8541 0
      vertex -1.17557 12.8541 0
      vertex 0.963501 13.2578 0
    endloop
  endfacet
  facet normal -0 0 -1
    outer loop
      vertex 1.17557 3.14589 0
      vertex -1.06487 2.93513 0
      vertex -1.17557 3.14589 0
    endloop
  endfacet
  facet normal 0 0 -1
    outer loop
      vertex 1.17557 3.14589 0
      vertex -1.17557 3.14589 0
      vertex -1.33569 3.5433 0
    endloop
  endfacet
  facet normal 0 -0 -1
    outer loop
      vertex -0.963501 13.2578 0
      vertex 0.963501 13.2578 0
      vertex -1.17557 12.8541 0
    endloop
  endfacet
  facet normal -0 0 -1
    outer loop
      vertex 1.54102 4.17545 0
      vertex -1.33569 3.5433 0
      vertex -1.64822 4.61812 0
    endloop
  endfacet
  facet normal 0 0 -1
    outer loop
      vertex 0.963501 13.2578 0
      vertex -0.963501 13.2578 0
      vertex 0.736237 13.5786 0
    endloop
  endfacet
  facet normal 0 0 -1
    outer loop
      vertex -1.64822 4.61812 0
      vertex -1.33569 3.5433 0
      vertex -1.37108 3.51823 0
    endloop
  endfacet
  facet normal 0 0 -1
    outer loop
      vertex 1.68864 4.78503 0
      vertex -1.64822 4.61812 0
      vertex -1.66586 4.69093 0
    endloop
  endfacet
  facet normal 0 0 -1
    outer loop
      vertex -1.64822 4.61812 0
      vertex -1.37108 3.51823 0
      vertex -1.57294 3.4122 0
    endloop
  endfacet
  facet normal 0 -0 -1
    outer loop
      vertex -0.736237 13.5786 0
      vertex 0.736237 13.5786 0
      vertex -0.963501 13.2578 0
    endloop
  endfacet
  facet normal -0 0 -1
    outer loop
      vertex 1.9021 6.14589 0
      vertex -1.66586 4.69093 0
      vertex -1.99605 8.00992 0
    endloop
  endfacet
  facet normal 0 0 -1
    outer loop
      vertex 0.736237 13.5786 0
      vertex -0.736237 13.5786 0
      vertex 0.497375 13.8115 0
    endloop
  endfacet
  facet normal 0 0 -1
    outer loop
      vertex -2.04916 4.80228 0
      vertex -1.66586 4.69093 0
      vertex -1.72258 4.70062 0
    endloop
  endfacet
  facet normal 0 -0 -1
    outer loop
      vertex -0.497375 13.8115 0
      vertex 0.497375 13.8115 0
      vertex -0.736237 13.5786 0
    endloop
  endfacet
  facet normal 0 -0 -1
    outer loop
      vertex -0.250656 13.9527 0
      vertex 0.250656 13.9527 0
      vertex -0.497375 13.8115 0
    endloop
  endfacet
  facet normal 0 0 -1
    outer loop
      vertex 0.250656 13.9527 0
      vertex -0.250656 13.9527 0
      vertex 0 14 0
    endloop
  endfacet
  facet normal 0 0 -1
    outer loop
      vertex 0.497375 13.8115 0
      vertex -0.497375 13.8115 0
      vertex 0.250656 13.9527 0
    endloop
  endfacet
  facet normal 0 0 -1
    outer loop
      vertex -1.66586 4.69093 0
      vertex -2.04916 4.80228 0
      vertex -1.99605 8.00992 0
    endloop
  endfacet
  facet normal 0 0 -1
    outer loop
      vertex -2.40649 4.95436 0
      vertex -1.99605 8.00992 0
      vertex -2.04916 4.80228 0
    endloop
  endfacet
  facet normal 0 0 -1
    outer loop
      vertex -2.78897 5.15446 0
      vertex -1.99605 8.00992 0
      vertex -2.40649 4.95436 0
    endloop
  endfacet
  facet normal 0 0 -1
    outer loop
      vertex -3.19055 5.39946 0
      vertex -1.99605 8.00992 0
      vertex -2.78897 5.15446 0
    endloop
  endfacet
  facet normal 0 0 -1
    outer loop
      vertex -3.60489 5.68546 0
      vertex -1.99605 8.00992 0
      vertex -3.19055 5.39946 0
    endloop
  endfacet
  facet normal 0 0 -1
    outer loop
      vertex -4.02545 6.00797 0
      vertex -1.99605 8.00992 0
      vertex -3.60489 5.68546 0
    endloop
  endfacet
  facet normal -0 0 -1
    outer loop
      vertex -1.99605 8.00992 0
      vertex -4.02545 6.00797 0
      vertex -2.36188 8.44562 0
    endloop
  endfacet
  facet normal 0 0 -1
    outer loop
      vertex -4.44562 6.36188 0
      vertex -2.36188 8.44562 0
      vertex -4.02545 6.00797 0
    endloop
  endfacet
  facet normal -0 0 -1
    outer loop
      vertex -2.36188 8.44562 0
      vertex -4.44562 6.36188 0
      vertex -2.74162 8.85876 0
    endloop
  endfacet
  facet normal 0 0 -1
    outer loop
      vertex -4.85876 6.74162 0
      vertex -2.74162 8.85876 0
      vertex -4.44562 6.36188 0
    endloop
  endfacet
  facet normal -0 0 -1
    outer loop
      vertex -2.74162 8.85876 0
      vertex -4.85876 6.74162 0
      vertex -3.14122 9.25836 0
    endloop
  endfacet
  facet normal 0 0 -1
    outer loop
      vertex -5.25836 7.14122 0
      vertex -3.14122 9.25836 0
      vertex -4.85876 6.74162 0
    endloop
  endfacet
  facet normal -0 0 -1
    outer loop
      vertex -3.14122 9.25836 0
      vertex -5.25836 7.14122 0
      vertex -3.55437 9.63811 0
    endloop
  endfacet
  facet normal 0 0 -1
    outer loop
      vertex -5.63811 7.55437 0
      vertex -3.55437 9.63811 0
      vertex -5.25836 7.14122 0
    endloop
  endfacet
  facet normal -0 0 -1
    outer loop
      vertex -3.55437 9.63811 0
      vertex -5.63811 7.55437 0
      vertex -3.97453 9.99202 0
    endloop
  endfacet
  facet normal 0 0 -1
    outer loop
      vertex -5.99202 7.97453 0
      vertex -3.97453 9.99202 0
      vertex -5.63811 7.55437 0
    endloop
  endfacet
  facet normal -0 0 -1
    outer loop
      vertex -3.97453 9.99202 0
      vertex -5.99202 7.97453 0
      vertex -4.3951 10.3145 0
    endloop
  endfacet
  facet normal 0 0 -1
    outer loop
      vertex -6.31453 8.3951 0
      vertex -4.3951 10.3145 0
      vertex -5.99202 7.97453 0
    endloop
  endfacet
  facet normal -0 0 -1
    outer loop
      vertex -4.3951 10.3145 0
      vertex -6.31453 8.3951 0
      vertex -4.80943 10.6005 0
    endloop
  endfacet
  facet normal 0 0 -1
    outer loop
      vertex -6.60052 8.80943 0
      vertex -4.80943 10.6005 0
      vertex -6.31453 8.3951 0
    endloop
  endfacet
  facet normal -0 0 -1
    outer loop
      vertex -4.80943 10.6005 0
      vertex -6.60052 8.80943 0
      vertex -5.21101 10.8455 0
    endloop
  endfacet
  facet normal 0 0 -1
    outer loop
      vertex -6.84552 9.21101 0
      vertex -5.21101 10.8455 0
      vertex -6.60052 8.80943 0
    endloop
  endfacet
  facet normal -0 0 -1
    outer loop
      vertex -5.21101 10.8455 0
      vertex -6.84552 9.21101 0
      vertex -5.59349 11.0456 0
    endloop
  endfacet
  facet normal 0 0 -1
    outer loop
      vertex -7.04562 9.59349 0
      vertex -5.59349 11.0456 0
      vertex -6.84552 9.21101 0
    endloop
  endfacet
  facet normal -0 0 -1
    outer loop
      vertex -5.59349 11.0456 0
      vertex -7.04562 9.59349 0
      vertex -5.95082 11.1977 0
    endloop
  endfacet
  facet normal 0 0 -1
    outer loop
      vertex -7.19771 9.95082 0
      vertex -5.95082 11.1977 0
      vertex -7.04562 9.59349 0
    endloop
  endfacet
  facet normal -0 0 -1
    outer loop
      vertex -5.95082 11.1977 0
      vertex -7.19771 9.95082 0
      vertex -6.2774 11.2994 0
    endloop
  endfacet
  facet normal 0 0 -1
    outer loop
      vertex -7.29936 10.2774 0
      vertex -6.2774 11.2994 0
      vertex -7.19771 9.95082 0
    endloop
  endfacet
  facet normal -0 0 -1
    outer loop
      vertex -6.2774 11.2994 0
      vertex -7.29936 10.2774 0
      vertex -6.56807 11.349 0
    endloop
  endfacet
  facet normal 0 0 -1
    outer loop
      vertex -7.34898 10.5681 0
      vertex -6.56807 11.349 0
      vertex -7.29936 10.2774 0
    endloop
  endfacet
  facet normal 0 0 -1
    outer loop
      vertex -6.56807 11.349 0
      vertex -7.34898 10.5681 0
      vertex -6.81822 11.3458 0
    endloop
  endfacet
  facet normal 0 -0 -1
    outer loop
      vertex -7.34578 10.8182 0
      vertex -6.81822 11.3458 0
      vertex -7.34898 10.5681 0
    endloop
  endfacet
  facet normal 0 0 -1
    outer loop
      vertex -6.81822 11.3458 0
      vertex -7.34578 10.8182 0
      vertex -7.02394 11.2898 0
    endloop
  endfacet
  facet normal 0 -0 -1
    outer loop
      vertex -7.28983 11.0239 0
      vertex -7.02394 11.2898 0
      vertex -7.34578 10.8182 0
    endloop
  endfacet
  facet normal 0 0 -1
    outer loop
      vertex -7.02394 11.2898 0
      vertex -7.28983 11.0239 0
      vertex -7.18198 11.182 0
    endloop
  endfacet
  facet normal 0 -0 -1
    outer loop
      vertex -1.17557 12.8541 0
      vertex 1.17557 12.8541 0
      vertex -1.36908 12.3738 0
    endloop
  endfacet
  facet normal 0 0 1
    outer loop
      vertex -1.99605 8.37674 4
      vertex 1.99605 8.37674 4
      vertex 1.96457 9.12428 4
    endloop
  endfacet
  facet normal 0 0 1
    outer loop
      vertex -1.99605 8.00992 4
      vertex 1.99605 8.37674 4
      vertex -1.99605 8.37674 4
    endloop
  endfacet
  facet normal 0 0 1
    outer loop
      vertex -1.96457 9.12428 4
      vertex 1.96457 9.12428 4
      vertex 1.9021 9.8541 4
    endloop
  endfacet
  facet normal 0 0 1
    outer loop
      vertex 1.99605 8.37674 4
      vertex -1.99605 8.00992 4
      vertex 1.99605 7.62325 4
    endloop
  endfacet
  facet normal 0 0 1
    outer loop
      vertex 1.96457 6.8757 4
      vertex -1.99605 8.00992 4
      vertex 1.9021 6.14589 4
    endloop
  endfacet
  facet normal 0 0 1
    outer loop
      vertex -1.9021 9.8541 4
      vertex 1.9021 9.8541 4
      vertex 1.80965 10.5547 4
    endloop
  endfacet
  facet normal 0 0 1
    outer loop
      vertex -1.80965 10.5547 4
      vertex 1.80965 10.5547 4
      vertex 1.68864 11.215 4
    endloop
  endfacet
  facet normal 0 0 1
    outer loop
      vertex -1.68864 11.215 4
      vertex 1.68864 11.215 4
      vertex 1.54102 11.8245 4
    endloop
  endfacet
  facet normal 0 0 1
    outer loop
      vertex -1.54102 11.8245 4
      vertex 1.54102 11.8245 4
      vertex 1.36908 12.3738 4
    endloop
  endfacet
  facet normal 0 0 1
    outer loop
      vertex -1.36908 12.3738 4
      vertex 1.36908 12.3738 4
      vertex 1.17557 12.8541 4
    endloop
  endfacet
  facet normal 0 0 1
    outer loop
      vertex -1.17557 12.8541 4
      vertex 1.17557 12.8541 4
      vertex 0.963501 13.2578 4
    endloop
  endfacet
  facet normal 0 0 1
    outer loop
      vertex -0.963501 13.2578 4
      vertex 0.963501 13.2578 4
      vertex 0.736237 13.5786 4
    endloop
  endfacet
  facet normal 0 0 1
    outer loop
      vertex -0.736237 13.5786 4
      vertex 0.736237 13.5786 4
      vertex 0.497375 13.8115 4
    endloop
  endfacet
  facet normal 0 0 1
    outer loop
      vertex -0.497375 13.8115 4
      vertex 0.497375 13.8115 4
      vertex 0.250656 13.9527 4
    endloop
  endfacet
  facet normal 0 0 1
    outer loop
      vertex -0.250656 13.9527 4
      vertex 0.250656 13.9527 4
      vertex 0 14 4
    endloop
  endfacet
  facet normal 0 0 1
    outer loop
      vertex 0.250656 13.9527 4
      vertex -0.250656 13.9527 4
      vertex -0.497375 13.8115 4
    endloop
  endfacet
  facet normal 0 0 1
    outer loop
      vertex 0.497375 13.8115 4
      vertex -0.497375 13.8115 4
      vertex -0.736237 13.5786 4
    endloop
  endfacet
  facet normal 0 0 1
    outer loop
      vertex 0.736237 13.5786 4
      vertex -0.736237 13.5786 4
      vertex -0.963501 13.2578 4
    endloop
  endfacet
  facet normal 0 0 1
    outer loop
      vertex 0.963501 13.2578 4
      vertex -0.963501 13.2578 4
      vertex -1.17557 12.8541 4
    endloop
  endfacet
  facet normal 0 0 1
    outer loop
      vertex 1.36908 12.3738 4
      vertex -1.36908 12.3738 4
      vertex -1.54102 11.8245 4
    endloop
  endfacet
  facet normal 0 0 1
    outer loop
      vertex 1.17557 12.8541 4
      vertex -1.17557 12.8541 4
      vertex -1.36908 12.3738 4
    endloop
  endfacet
  facet normal 0 0 1
    outer loop
      vertex 1.9021 6.14589 4
      vertex -1.66586 4.69093 4
      vertex 1.86504 5.86504 4
    endloop
  endfacet
  facet normal 0 -0 1
    outer loop
      vertex -1.64822 4.61812 4
      vertex 1.86504 5.86504 4
      vertex -1.66586 4.69093 4
    endloop
  endfacet
  facet normal 0 0 1
    outer loop
      vertex 1.54102 11.8245 4
      vertex -1.54102 11.8245 4
      vertex -1.68864 11.215 4
    endloop
  endfacet
  facet normal 0 -0 1
    outer loop
      vertex -1.17557 3.14589 4
      vertex 1.86504 5.86504 4
      vertex -1.33569 3.5433 4
    endloop
  endfacet
  facet normal 0 0 1
    outer loop
      vertex 1.68864 11.215 4
      vertex -1.68864 11.215 4
      vertex -1.80965 10.5547 4
    endloop
  endfacet
  facet normal 0 0 1
    outer loop
      vertex -1.33569 3.5433 4
      vertex -1.64822 4.61812 4
      vertex -1.37108 3.51823 4
    endloop
  endfacet
  facet normal 0 0 1
    outer loop
      vertex -1.37108 3.51823 4
      vertex -1.64822 4.61812 4
      vertex -1.57294 3.4122 4
    endloop
  endfacet
  facet normal 0 0 1
    outer loop
      vertex 1.86504 5.86504 4
      vertex -1.17557 3.14589 4
      vertex -1.06487 2.93513 4
    endloop
  endfacet
  facet normal 0 0 1
    outer loop
      vertex 1.80965 10.5547 4
      vertex -1.80965 10.5547 4
      vertex -1.9021 9.8541 4
    endloop
  endfacet
  facet normal 0 -0 1
    outer loop
      vertex -1.33569 3.5433 4
      vertex 1.86504 5.86504 4
      vertex -1.64822 4.61812 4
    endloop
  endfacet
  facet normal 0 0 1
    outer loop
      vertex 1.9021 9.8541 4
      vertex -1.9021 9.8541 4
      vertex -1.96457 9.12428 4
    endloop
  endfacet
  facet normal 0 0 1
    outer loop
      vertex 1.96457 9.12428 4
      vertex -1.96457 9.12428 4
      vertex -1.99605 8.37674 4
    endloop
  endfacet
  facet normal 0 0 1
    outer loop
      vertex 1.99605 7.62325 4
      vertex -1.99605 8.00992 4
      vertex 1.96457 6.8757 4
    endloop
  endfacet
  facet normal 0 -0 1
    outer loop
      vertex -1.66586 4.69093 4
      vertex 1.9021 6.14589 4
      vertex -1.99605 8.00992 4
    endloop
  endfacet
  facet normal -0 0 1
    outer loop
      vertex -2.04916 4.80228 4
      vertex -1.66586 4.69093 4
      vertex -1.99605 8.00992 4
    endloop
  endfacet
  facet normal 0 0 1
    outer loop
      vertex -1.66586 4.69093 4
      vertex -2.04916 4.80228 4
      vertex -1.72258 4.70062 4
    endloop
  endfacet
  facet normal 0 0 1
    outer loop
      vertex -4.02545 6.00797 4
      vertex -1.99605 8.00992 4
      vertex -2.36188 8.44562 4
    endloop
  endfacet
  facet normal 0 0 1
    outer loop
      vertex -1.99605 8.00992 4
      vertex -2.40649 4.95436 4
      vertex -2.04916 4.80228 4
    endloop
  endfacet
  facet normal 0 0 1
    outer loop
      vertex -4.44562 6.36188 4
      vertex -2.36188 8.44562 4
      vertex -2.74162 8.85876 4
    endloop
  endfacet
  facet normal 0 0 1
    outer loop
      vertex -1.99605 8.00992 4
      vertex -2.78897 5.15446 4
      vertex -2.40649 4.95436 4
    endloop
  endfacet
  facet normal 0 0 1
    outer loop
      vertex -4.85876 6.74162 4
      vertex -2.74162 8.85876 4
      vertex -3.14122 9.25836 4
    endloop
  endfacet
  facet normal 0 0 1
    outer loop
      vertex -1.99605 8.00992 4
      vertex -3.19055 5.39946 4
      vertex -2.78897 5.15446 4
    endloop
  endfacet
  facet normal 0 0 1
    outer loop
      vertex -5.25836 7.14122 4
      vertex -3.14122 9.25836 4
      vertex -3.55437 9.63811 4
    endloop
  endfacet
  facet normal 0 0 1
    outer loop
      vertex -1.99605 8.00992 4
      vertex -3.60489 5.68546 4
      vertex -3.19055 5.39946 4
    endloop
  endfacet
  facet normal 0 0 1
    outer loop
      vertex -5.63811 7.55437 4
      vertex -3.55437 9.63811 4
      vertex -3.97453 9.99202 4
    endloop
  endfacet
  facet normal 0 0 1
    outer loop
      vertex -1.99605 8.00992 4
      vertex -4.02545 6.00797 4
      vertex -3.60489 5.68546 4
    endloop
  endfacet
  facet normal 0 0 1
    outer loop
      vertex -5.99202 7.97453 4
      vertex -3.97453 9.99202 4
      vertex -4.3951 10.3145 4
    endloop
  endfacet
  facet normal 0 0 1
    outer loop
      vertex -2.36188 8.44562 4
      vertex -4.44562 6.36188 4
      vertex -4.02545 6.00797 4
    endloop
  endfacet
  facet normal 0 0 1
    outer loop
      vertex -6.31453 8.3951 4
      vertex -4.3951 10.3145 4
      vertex -4.80943 10.6005 4
    endloop
  endfacet
  facet normal 0 0 1
    outer loop
      vertex -2.74162 8.85876 4
      vertex -4.85876 6.74162 4
      vertex -4.44562 6.36188 4
    endloop
  endfacet
  facet normal 0 0 1
    outer loop
      vertex -6.60052 8.80943 4
      vertex -4.80943 10.6005 4
      vertex -5.21101 10.8455 4
    endloop
  endfacet
  facet normal 0 0 1
    outer loop
      vertex -3.14122 9.25836 4
      vertex -5.25836 7.14122 4
      vertex -4.85876 6.74162 4
    endloop
  endfacet
  facet normal 0 0 1
    outer loop
      vertex -6.84552 9.21101 4
      vertex -5.21101 10.8455 4
      vertex -5.59349 11.0456 4
    endloop
  endfacet
  facet normal 0 0 1
    outer loop
      vertex -3.55437 9.63811 4
      vertex -5.63811 7.55437 4
      vertex -5.25836 7.14122 4
    endloop
  endfacet
  facet normal 0 0 1
    outer loop
      vertex -7.04562 9.59349 4
      vertex -5.59349 11.0456 4
      vertex -5.95082 11.1977 4
    endloop
  endfacet
  facet normal 0 0 1
    outer loop
      vertex -3.97453 9.99202 4
      vertex -5.99202 7.97453 4
      vertex -5.63811 7.55437 4
    endloop
  endfacet
  facet normal 0 0 1
    outer loop
      vertex -7.19771 9.95082 4
      vertex -5.95082 11.1977 4
      vertex -6.2774 11.2994 4
    endloop
  endfacet
  facet normal 0 0 1
    outer loop
      vertex -4.3951 10.3145 4
      vertex -6.31453 8.3951 4
      vertex -5.99202 7.97453 4
    endloop
  endfacet
  facet normal 0 0 1
    outer loop
      vertex -7.29936 10.2774 4
      vertex -6.2774 11.2994 4
      vertex -6.56807 11.349 4
    endloop
  endfacet
  facet normal 0 0 1
    outer loop
      vertex -4.80943 10.6005 4
      vertex -6.60052 8.80943 4
      vertex -6.31453 8.3951 4
    endloop
  endfacet
  facet normal 0 0 1
    outer loop
      vertex -7.34898 10.5681 4
      vertex -6.56807 11.349 4
      vertex -6.81822 11.3458 4
    endloop
  endfacet
  facet normal 0 0 1
    outer loop
      vertex -5.21101 10.8455 4
      vertex -6.84552 9.21101 4
      vertex -6.60052 8.80943 4
    endloop
  endfacet
  facet normal 0 0 1
    outer loop
      vertex -7.34578 10.8182 4
      vertex -6.81822 11.3458 4
      vertex -7.02394 11.2898 4
    endloop
  endfacet
  facet normal 0 0 1
    outer loop
      vertex -5.59349 11.0456 4
      vertex -7.04562 9.59349 4
      vertex -6.84552 9.21101 4
    endloop
  endfacet
  facet normal 0 0 1
    outer loop
      vertex -7.28983 11.0239 4
      vertex -7.02394 11.2898 4
      vertex -7.18198 11.182 4
    endloop
  endfacet
  facet normal 0 0 1
    outer loop
      vertex -5.95082 11.1977 4
      vertex -7.19771 9.95082 4
      vertex -7.04562 9.59349 4
    endloop
  endfacet
  facet normal 0 0 1
    outer loop
      vertex -7.02394 11.2898 4
      vertex -7.28983 11.0239 4
      vertex -7.34578 10.8182 4
    endloop
  endfacet
  facet normal 0 0 1
    outer loop
      vertex -6.2774 11.2994 4
      vertex -7.29936 10.2774 4
      vertex -7.19771 9.95082 4
    endloop
  endfacet
  facet normal 0 0 1
    outer loop
      vertex -6.81822 11.3458 4
      vertex -7.34578 10.8182 4
      vertex -7.34898 10.5681 4
    endloop
  endfacet
  facet normal 0 0 1
    outer loop
      vertex -6.56807 11.349 4
      vertex -7.34898 10.5681 4
      vertex -7.29936 10.2774 4
    endloop
  endfacet
  facet normal 0 0 1
    outer loop
      vertex -1.81308 3.31544 4
      vertex -1.64822 4.61812 4
      vertex -1.81308 4.68454 4
    endloop
  endfacet
  facet normal 0 0 1
    outer loop
      vertex -1.64822 4.61812 4
      vertex -1.81308 3.31544 4
      vertex -1.57294 3.4122 4
    endloop
  endfacet
  facet normal 0 0 1
    outer loop
      vertex -2.08772 4.77051 4
      vertex -1.81308 3.31544 4
      vertex -1.81308 4.68454 4
    endloop
  endfacet
  facet normal 0 0 1
    outer loop
      vertex -2.08772 4.77051 4
      vertex -2.08772 3.22948 4
      vertex -1.81308 3.31544 4
    endloop
  endfacet
  facet normal 0 0 1
    outer loop
      vertex -2.39252 4.84431 4
      vertex -2.08772 3.22948 4
      vertex -2.08772 4.77051 4
    endloop
  endfacet
  facet normal 0 0 1
    outer loop
      vertex -2.39252 4.84431 4
      vertex -2.39252 3.15567 4
      vertex -2.08772 3.22948 4
    endloop
  endfacet
  facet normal 0 0 1
    outer loop
      vertex -2.72266 4.90482 4
      vertex -2.39252 3.15567 4
      vertex -2.39252 4.84431 4
    endloop
  endfacet
  facet normal 0 0 1
    outer loop
      vertex -2.72266 4.90482 4
      vertex -2.72266 3.09517 4
      vertex -2.39252 3.15567 4
    endloop
  endfacet
  facet normal 0 0 1
    outer loop
      vertex -3.07294 4.95105 4
      vertex -2.72266 3.09517 4
      vertex -2.72266 4.90482 4
    endloop
  endfacet
  facet normal 0 0 1
    outer loop
      vertex -3.07294 4.95105 4
      vertex -3.07294 3.04893 4
      vertex -2.72266 3.09517 4
    endloop
  endfacet
  facet normal 0 0 1
    outer loop
      vertex -3.43785 4.98228 4
      vertex -3.07294 3.04893 4
      vertex -3.07294 4.95105 4
    endloop
  endfacet
  facet normal 0 0 1
    outer loop
      vertex -3.43785 4.98228 4
      vertex -3.43785 3.0177 4
      vertex -3.07294 3.04893 4
    endloop
  endfacet
  facet normal 0 0 1
    outer loop
      vertex -3.81161 4.99802 4
      vertex -3.43785 3.0177 4
      vertex -3.43785 4.98228 4
    endloop
  endfacet
  facet normal 0 0 1
    outer loop
      vertex -3.81161 4.99802 4
      vertex -3.81161 3.00197 4
      vertex -3.43785 3.0177 4
    endloop
  endfacet
  facet normal -0 0 1
    outer loop
      vertex -4.18837 4.99802 4
      vertex -3.81161 3.00197 4
      vertex -3.81161 4.99802 4
    endloop
  endfacet
  facet normal 0 0 1
    outer loop
      vertex -4.18837 4.99802 4
      vertex -4.18837 3.00197 4
      vertex -3.81161 3.00197 4
    endloop
  endfacet
  facet normal -0 0 1
    outer loop
      vertex -4.56213 4.98228 4
      vertex -4.18837 3.00197 4
      vertex -4.18837 4.99802 4
    endloop
  endfacet
  facet normal 0 0 1
    outer loop
      vertex -4.56213 4.98228 4
      vertex -4.56213 3.0177 4
      vertex -4.18837 3.00197 4
    endloop
  endfacet
  facet normal -0 0 1
    outer loop
      vertex -4.92705 4.95105 4
      vertex -4.56213 3.0177 4
      vertex -4.56213 4.98228 4
    endloop
  endfacet
  facet normal 0 0 1
    outer loop
      vertex -4.92705 4.95105 4
      vertex -4.92705 3.04893 4
      vertex -4.56213 3.0177 4
    endloop
  endfacet
  facet normal -0 0 1
    outer loop
      vertex -5.27733 4.90482 4
      vertex -4.92705 3.04893 4
      vertex -4.92705 4.95105 4
    endloop
  endfacet
  facet normal 0 0 1
    outer loop
      vertex -5.27733 4.90482 4
      vertex -5.27733 3.09517 4
      vertex -4.92705 3.04893 4
    endloop
  endfacet
  facet normal -0 0 1
    outer loop
      vertex -5.60747 4.84431 4
      vertex -5.27733 3.09517 4
      vertex -5.27733 4.90482 4
    endloop
  endfacet
  facet normal 0 0 1
    outer loop
      vertex -5.60747 4.84431 4
      vertex -5.60747 3.15567 4
      vertex -5.27733 3.09517 4
    endloop
  endfacet
  facet normal -0 0 1
    outer loop
      vertex -5.91226 4.77051 4
      vertex -5.60747 3.15567 4
      vertex -5.60747 4.84431 4
    endloop
  endfacet
  facet normal 0 0 1
    outer loop
      vertex -5.91226 4.77051 4
      vertex -5.91226 3.22948 4
      vertex -5.60747 3.15567 4
    endloop
  endfacet
  facet normal -0 0 1
    outer loop
      vertex -6.1869 4.68454 4
      vertex -5.91226 3.22948 4
      vertex -5.91226 4.77051 4
    endloop
  endfacet
  facet normal 0 0 1
    outer loop
      vertex -6.1869 4.68454 4
      vertex -6.1869 3.31544 4
      vertex -5.91226 3.22948 4
    endloop
  endfacet
  facet normal -0 0 1
    outer loop
      vertex -6.42705 4.58778 4
      vertex -6.1869 3.31544 4
      vertex -6.1869 4.68454 4
    endloop
  endfacet
  facet normal 0 0 1
    outer loop
      vertex -6.42705 4.58778 4
      vertex -6.42705 3.4122 4
      vertex -6.1869 3.31544 4
    endloop
  endfacet
  facet normal -0 0 1
    outer loop
      vertex -6.62891 4.48175 4
      vertex -6.42705 3.4122 4
      vertex -6.42705 4.58778 4
    endloop
  endfacet
  facet normal 0 0 1
    outer loop
      vertex -6.62891 4.48175 4
      vertex -6.62891 3.51823 4
      vertex -6.42705 3.4122 4
    endloop
  endfacet
  facet normal -0 0 1
    outer loop
      vertex -6.78932 4.36812 4
      vertex -6.62891 3.51823 4
      vertex -6.62891 4.48175 4
    endloop
  endfacet
  facet normal 0 0 1
    outer loop
      vertex -6.78932 4.36812 4
      vertex -6.78932 3.63187 4
      vertex -6.62891 3.51823 4
    endloop
  endfacet
  facet normal -0 0 1
    outer loop
      vertex -6.90575 4.24869 4
      vertex -6.78932 3.63187 4
      vertex -6.78932 4.36812 4
    endloop
  endfacet
  facet normal 0 0 1
    outer loop
      vertex -6.90575 4.24869 4
      vertex -6.90575 3.7513 4
      vertex -6.78932 3.63187 4
    endloop
  endfacet
  facet normal -0 0 1
    outer loop
      vertex -6.97633 4.12532 4
      vertex -6.90575 3.7513 4
      vertex -6.90575 4.24869 4
    endloop
  endfacet
  facet normal 0 0 1
    outer loop
      vertex -6.97633 4.12532 4
      vertex -6.97633 3.87466 4
      vertex -6.90575 3.7513 4
    endloop
  endfacet
  facet normal 0 -0 1
    outer loop
      vertex -6.97633 3.87466 4
      vertex -6.97633 4.12532 4
      vertex -7 4 4
    endloop
  endfacet
  facet normal 0.496688 -0.867929 0
    outer loop
      vertex 0.250656 2.0473 0
      vertex 0.497375 2.18849 5.43774e-16
      vertex 0.250656 2.0473 5.1892e-16
    endloop
  endfacet
  facet normal 0.496688 -0.867929 0
    outer loop
      vertex 0.497375 2.18849 5.43774e-16
      vertex 0.250656 2.0473 0
      vertex 0.497375 2.18849 0
    endloop
  endfacet
  facet normal 0.698038 -0.716061 0
    outer loop
      vertex 0.497375 2.18849 0
      vertex 0.736237 2.42134 5.4519e-16
      vertex 0.497375 2.18849 5.43774e-16
    endloop
  endfacet
  facet normal 0.698038 -0.716061 0
    outer loop
      vertex 0.736237 2.42134 5.4519e-16
      vertex 0.497375 2.18849 0
      vertex 0.736237 2.42134 0
    endloop
  endfacet
  facet normal 0.816001 -0.578051 0
    outer loop
      vertex 0.736237 2.42134 5.4519e-16
      vertex 0.963501 2.74216 0
      vertex 0.963501 2.74216 5.23157e-16
    endloop
  endfacet
  facet normal 0.816001 -0.578051 0
    outer loop
      vertex 0.963501 2.74216 0
      vertex 0.736237 2.42134 5.4519e-16
      vertex 0.736237 2.42134 0
    endloop
  endfacet
  facet normal 0.885301 -0.465018 0
    outer loop
      vertex 0.963501 2.74216 5.23157e-16
      vertex 1.17557 3.14589 0
      vertex 1.17557 3.14589 4.78017e-16
    endloop
  endfacet
  facet normal 0.885301 -0.465018 0
    outer loop
      vertex 1.17557 3.14589 0
      vertex 0.963501 2.74216 5.23157e-16
      vertex 0.963501 2.74216 0
    endloop
  endfacet
  facet normal 0.927543 -0.373716 0
    outer loop
      vertex 1.17557 3.14589 4.78017e-16
      vertex 1.36908 3.62617 0
      vertex 1.36908 3.62617 4.10478e-16
    endloop
  endfacet
  facet normal 0.927543 -0.373716 0
    outer loop
      vertex 1.36908 3.62617 0
      vertex 1.17557 3.14589 4.78017e-16
      vertex 1.17557 3.14589 0
    endloop
  endfacet
  facet normal 0.954337 -0.298732 0
    outer loop
      vertex 1.36908 3.62617 4.10478e-16
      vertex 1.54102 4.17545 0
      vertex 1.54102 4.17545 3.21611e-16
    endloop
  endfacet
  facet normal 0.954337 -0.298732 0
    outer loop
      vertex 1.54102 4.17545 0
      vertex 1.36908 3.62617 4.10478e-16
      vertex 1.36908 3.62617 0
    endloop
  endfacet
  facet normal 0.971905 -0.235374 0
    outer loop
      vertex 1.54102 4.17545 3.21611e-16
      vertex 1.68864 4.78503 0
      vertex 1.68864 4.78503 2.12813e-16
    endloop
  endfacet
  facet normal 0.971905 -0.235374 0
    outer loop
      vertex 1.68864 4.78503 0
      vertex 1.54102 4.17545 3.21611e-16
      vertex 1.54102 4.17545 0
    endloop
  endfacet
  facet normal 0.983619 -0.180257 0
    outer loop
      vertex 1.68864 4.78503 2.12813e-16
      vertex 1.80965 5.44531 0
      vertex 1.80965 5.44531 8.58057e-17
    endloop
  endfacet
  facet normal 0.983619 -0.180257 0
    outer loop
      vertex 1.80965 5.44531 0
      vertex 1.68864 4.78503 2.12813e-16
      vertex 1.68864 4.78503 0
    endloop
  endfacet
  facet normal 0.991404 -0.130833 0
    outer loop
      vertex 1.86504 5.86504 4
      vertex 1.9021 6.14589 0
      vertex 1.9021 6.14589 4
    endloop
  endfacet
  facet normal 0.991404 -0.130833 0
    outer loop
      vertex 1.9021 6.14589 0
      vertex 1.86504 5.86504 4
      vertex 1.86504 5.86504 0
    endloop
  endfacet
  facet normal 0.991404 -0.130833 0
    outer loop
      vertex 1.86504 5.86504 0
      vertex 1.80965 5.44531 8.58057e-17
      vertex 1.80965 5.44531 0
    endloop
  endfacet
  facet normal 0.996357 -0.0852847 0
    outer loop
      vertex 1.9021 6.14589 4
      vertex 1.96457 6.8757 0
      vertex 1.96457 6.8757 4
    endloop
  endfacet
  facet normal 0.996357 -0.0852847 0
    outer loop
      vertex 1.96457 6.8757 0
      vertex 1.9021 6.14589 4
      vertex 1.9021 6.14589 0
    endloop
  endfacet
  facet normal 0.999115 -0.0420725 0
    outer loop
      vertex 1.96457 6.8757 4
      vertex 1.99605 7.62325 0
      vertex 1.99605 7.62325 4
    endloop
  endfacet
  facet normal 0.999115 -0.0420725 0
    outer loop
      vertex 1.99605 7.62325 0
      vertex 1.96457 6.8757 4
      vertex 1.96457 6.8757 0
    endloop
  endfacet
  facet normal 1 -0 0
    outer loop
      vertex 1.99605 7.62325 4
      vertex 1.99605 8.37674 0
      vertex 1.99605 8.37674 4
    endloop
  endfacet
  facet normal 1 0 0
    outer loop
      vertex 1.99605 8.37674 0
      vertex 1.99605 7.62325 4
      vertex 1.99605 7.62325 0
    endloop
  endfacet
  facet normal 0.999115 0.0420725 0
    outer loop
      vertex 1.99605 8.37674 4
      vertex 1.96457 9.12428 0
      vertex 1.96457 9.12428 4
    endloop
  endfacet
  facet normal 0.999115 0.0420725 0
    outer loop
      vertex 1.96457 9.12428 0
      vertex 1.99605 8.37674 4
      vertex 1.99605 8.37674 0
    endloop
  endfacet
  facet normal 0.996357 0.0852847 0
    outer loop
      vertex 1.96457 9.12428 4
      vertex 1.9021 9.8541 0
      vertex 1.9021 9.8541 4
    endloop
  endfacet
  facet normal 0.996357 0.0852847 0
    outer loop
      vertex 1.9021 9.8541 0
      vertex 1.96457 9.12428 4
      vertex 1.96457 9.12428 0
    endloop
  endfacet
  facet normal 0.991404 0.130833 0
    outer loop
      vertex 1.9021 9.8541 4
      vertex 1.80965 10.5547 0
      vertex 1.80965 10.5547 4
    endloop
  endfacet
  facet normal 0.991404 0.130833 0
    outer loop
      vertex 1.80965 10.5547 0
      vertex 1.9021 9.8541 4
      vertex 1.9021 9.8541 0
    endloop
  endfacet
  facet normal 0.983619 0.180257 0
    outer loop
      vertex 1.80965 10.5547 4
      vertex 1.68864 11.215 0
      vertex 1.68864 11.215 4
    endloop
  endfacet
  facet normal 0.983619 0.180257 0
    outer loop
      vertex 1.68864 11.215 0
      vertex 1.80965 10.5547 4
      vertex 1.80965 10.5547 0
    endloop
  endfacet
  facet normal 0.971905 0.235374 0
    outer loop
      vertex 1.68864 11.215 4
      vertex 1.54102 11.8245 0
      vertex 1.54102 11.8245 4
    endloop
  endfacet
  facet normal 0.971905 0.235374 0
    outer loop
      vertex 1.54102 11.8245 0
      vertex 1.68864 11.215 4
      vertex 1.68864 11.215 0
    endloop
  endfacet
  facet normal 0.954337 0.298732 0
    outer loop
      vertex 1.54102 11.8245 4
      vertex 1.36908 12.3738 0
      vertex 1.36908 12.3738 4
    endloop
  endfacet
  facet normal 0.954337 0.298732 0
    outer loop
      vertex 1.36908 12.3738 0
      vertex 1.54102 11.8245 4
      vertex 1.54102 11.8245 0
    endloop
  endfacet
  facet normal 0.927543 0.373716 0
    outer loop
      vertex 1.36908 12.3738 4
      vertex 1.17557 12.8541 0
      vertex 1.17557 12.8541 4
    endloop
  endfacet
  facet normal 0.927543 0.373716 0
    outer loop
      vertex 1.17557 12.8541 0
      vertex 1.36908 12.3738 4
      vertex 1.36908 12.3738 0
    endloop
  endfacet
  facet normal 0.885301 0.465018 0
    outer loop
      vertex 1.17557 12.8541 4
      vertex 0.963501 13.2578 0
      vertex 0.963501 13.2578 4
    endloop
  endfacet
  facet normal 0.885301 0.465018 0
    outer loop
      vertex 0.963501 13.2578 0
      vertex 1.17557 12.8541 4
      vertex 1.17557 12.8541 0
    endloop
  endfacet
  facet normal 0.816001 0.578051 0
    outer loop
      vertex 0.963501 13.2578 4
      vertex 0.736237 13.5786 0
      vertex 0.736237 13.5786 4
    endloop
  endfacet
  facet normal 0.816001 0.578051 0
    outer loop
      vertex 0.736237 13.5786 0
      vertex 0.963501 13.2578 4
      vertex 0.963501 13.2578 0
    endloop
  endfacet
  facet normal 0.698038 0.716061 -0
    outer loop
      vertex 0.736237 13.5786 0
      vertex 0.497375 13.8115 4
      vertex 0.736237 13.5786 4
    endloop
  endfacet
  facet normal 0.698038 0.716061 0
    outer loop
      vertex 0.497375 13.8115 4
      vertex 0.736237 13.5786 0
      vertex 0.497375 13.8115 0
    endloop
  endfacet
  facet normal 0.496688 0.867929 -0
    outer loop
      vertex 0.497375 13.8115 0
      vertex 0.250656 13.9527 4
      vertex 0.497375 13.8115 4
    endloop
  endfacet
  facet normal 0.496688 0.867929 0
    outer loop
      vertex 0.250656 13.9527 4
      vertex 0.497375 13.8115 0
      vertex 0.250656 13.9527 0
    endloop
  endfacet
  facet normal 0.185498 0.982645 -0
    outer loop
      vertex 0.250656 13.9527 0
      vertex 0 14 4
      vertex 0.250656 13.9527 4
    endloop
  endfacet
  facet normal 0.185498 0.982645 0
    outer loop
      vertex 0 14 4
      vertex 0.250656 13.9527 0
      vertex 0 14 0
    endloop
  endfacet
  facet normal -0.185498 0.982645 0
    outer loop
      vertex 0 14 0
      vertex -0.250656 13.9527 4
      vertex 0 14 4
    endloop
  endfacet
  facet normal -0.185498 0.982645 0
    outer loop
      vertex -0.250656 13.9527 4
      vertex 0 14 0
      vertex -0.250656 13.9527 0
    endloop
  endfacet
  facet normal -0.496688 0.867929 0
    outer loop
      vertex -0.250656 13.9527 0
      vertex -0.497375 13.8115 4
      vertex -0.250656 13.9527 4
    endloop
  endfacet
  facet normal -0.496688 0.867929 0
    outer loop
      vertex -0.497375 13.8115 4
      vertex -0.250656 13.9527 0
      vertex -0.497375 13.8115 0
    endloop
  endfacet
  facet normal -0.698038 0.716061 0
    outer loop
      vertex -0.497375 13.8115 0
      vertex -0.736237 13.5786 4
      vertex -0.497375 13.8115 4
    endloop
  endfacet
  facet normal -0.698038 0.716061 0
    outer loop
      vertex -0.736237 13.5786 4
      vertex -0.497375 13.8115 0
      vertex -0.736237 13.5786 0
    endloop
  endfacet
  facet normal -0.816001 0.578051 0
    outer loop
      vertex -0.963501 13.2578 0
      vertex -0.736237 13.5786 4
      vertex -0.736237 13.5786 0
    endloop
  endfacet
  facet normal -0.816001 0.578051 0
    outer loop
      vertex -0.736237 13.5786 4
      vertex -0.963501 13.2578 0
      vertex -0.963501 13.2578 4
    endloop
  endfacet
  facet normal -0.885301 0.465018 0
    outer loop
      vertex -1.17557 12.8541 0
      vertex -0.963501 13.2578 4
      vertex -0.963501 13.2578 0
    endloop
  endfacet
  facet normal -0.885301 0.465018 0
    outer loop
      vertex -0.963501 13.2578 4
      vertex -1.17557 12.8541 0
      vertex -1.17557 12.8541 4
    endloop
  endfacet
  facet normal -0.927543 0.373716 0
    outer loop
      vertex -1.36908 12.3738 0
      vertex -1.17557 12.8541 4
      vertex -1.17557 12.8541 0
    endloop
  endfacet
  facet normal -0.927543 0.373716 0
    outer loop
      vertex -1.17557 12.8541 4
      vertex -1.36908 12.3738 0
      vertex -1.36908 12.3738 4
    endloop
  endfacet
  facet normal -0.954337 0.298732 0
    outer loop
      vertex -1.54102 11.8245 0
      vertex -1.36908 12.3738 4
      vertex -1.36908 12.3738 0
    endloop
  endfacet
  facet normal -0.954337 0.298732 0
    outer loop
      vertex -1.36908 12.3738 4
      vertex -1.54102 11.8245 0
      vertex -1.54102 11.8245 4
    endloop
  endfacet
  facet normal -0.971905 0.235374 0
    outer loop
      vertex -1.68864 11.215 0
      vertex -1.54102 11.8245 4
      vertex -1.54102 11.8245 0
    endloop
  endfacet
  facet normal -0.971905 0.235374 0
    outer loop
      vertex -1.54102 11.8245 4
      vertex -1.68864 11.215 0
      vertex -1.68864 11.215 4
    endloop
  endfacet
  facet normal -0.983619 0.180257 0
    outer loop
      vertex -1.80965 10.5547 0
      vertex -1.68864 11.215 4
      vertex -1.68864 11.215 0
    endloop
  endfacet
  facet normal -0.983619 0.180257 0
    outer loop
      vertex -1.68864 11.215 4
      vertex -1.80965 10.5547 0
      vertex -1.80965 10.5547 4
    endloop
  endfacet
  facet normal -0.991404 0.130833 0
    outer loop
      vertex -1.9021 9.8541 0
      vertex -1.80965 10.5547 4
      vertex -1.80965 10.5547 0
    endloop
  endfacet
  facet normal -0.991404 0.130833 0
    outer loop
      vertex -1.80965 10.5547 4
      vertex -1.9021 9.8541 0
      vertex -1.9021 9.8541 4
    endloop
  endfacet
  facet normal -0.996357 0.0852847 0
    outer loop
      vertex -1.96457 9.12428 0
      vertex -1.9021 9.8541 4
      vertex -1.9021 9.8541 0
    endloop
  endfacet
  facet normal -0.996357 0.0852847 0
    outer loop
      vertex -1.9021 9.8541 4
      vertex -1.96457 9.12428 0
      vertex -1.96457 9.12428 4
    endloop
  endfacet
  facet normal -0.999115 0.0420725 0
    outer loop
      vertex -1.99605 8.37674 0
      vertex -1.96457 9.12428 4
      vertex -1.96457 9.12428 0
    endloop
  endfacet
  facet normal -0.999115 0.0420725 0
    outer loop
      vertex -1.96457 9.12428 4
      vertex -1.99605 8.37674 0
      vertex -1.99605 8.37674 4
    endloop
  endfacet
  facet normal -1 0 0
    outer loop
      vertex -1.99605 8.00992 0
      vertex -1.99605 8.37674 4
      vertex -1.99605 8.37674 0
    endloop
  endfacet
  facet normal -1 -0 0
    outer loop
      vertex -1.99605 8.37674 4
      vertex -1.99605 8.00992 0
      vertex -1.99605 8.00992 4
    endloop
  endfacet
  facet normal 0.765842 0.643029 0
    outer loop
      vertex -1.99605 8.00992 4
      vertex -2.36188 8.44562 0
      vertex -2.36188 8.44562 4
    endloop
  endfacet
  facet normal 0.765842 0.643029 0
    outer loop
      vertex -2.36188 8.44562 0
      vertex -1.99605 8.00992 4
      vertex -1.99605 8.00992 0
    endloop
  endfacet
  facet normal 0.736241 0.676719 0
    outer loop
      vertex -2.36188 8.44562 4
      vertex -2.74162 8.85876 0
      vertex -2.74162 8.85876 4
    endloop
  endfacet
  facet normal 0.736241 0.676719 0
    outer loop
      vertex -2.74162 8.85876 0
      vertex -2.36188 8.44562 4
      vertex -2.36188 8.44562 0
    endloop
  endfacet
  facet normal 0.707107 0.707107 0
    outer loop
      vertex -2.74162 8.85876 4
      vertex -3.14122 9.25836 0
      vertex -3.14122 9.25836 4
    endloop
  endfacet
  facet normal 0.707107 0.707107 0
    outer loop
      vertex -3.14122 9.25836 0
      vertex -2.74162 8.85876 4
      vertex -2.74162 8.85876 0
    endloop
  endfacet
  facet normal 0.676719 0.736241 -0
    outer loop
      vertex -3.14122 9.25836 0
      vertex -3.55437 9.63811 4
      vertex -3.14122 9.25836 4
    endloop
  endfacet
  facet normal 0.676719 0.736241 0
    outer loop
      vertex -3.55437 9.63811 4
      vertex -3.14122 9.25836 0
      vertex -3.55437 9.63811 0
    endloop
  endfacet
  facet normal 0.64423 0.764832 -0
    outer loop
      vertex -3.55437 9.63811 0
      vertex -3.97453 9.99202 4
      vertex -3.55437 9.63811 4
    endloop
  endfacet
  facet normal 0.64423 0.764832 0
    outer loop
      vertex -3.97453 9.99202 4
      vertex -3.55437 9.63811 0
      vertex -3.97453 9.99202 0
    endloop
  endfacet
  facet normal 0.608525 0.793535 -0
    outer loop
      vertex -3.97453 9.99202 0
      vertex -4.3951 10.3145 4
      vertex -3.97453 9.99202 4
    endloop
  endfacet
  facet normal 0.608525 0.793535 0
    outer loop
      vertex -4.3951 10.3145 4
      vertex -3.97453 9.99202 0
      vertex -4.3951 10.3145 0
    endloop
  endfacet
  facet normal 0.568064 0.822985 -0
    outer loop
      vertex -4.3951 10.3145 0
      vertex -4.80943 10.6005 4
      vertex -4.3951 10.3145 4
    endloop
  endfacet
  facet normal 0.568064 0.822985 0
    outer loop
      vertex -4.80943 10.6005 4
      vertex -4.3951 10.3145 0
      vertex -4.80943 10.6005 0
    endloop
  endfacet
  facet normal 0.520807 0.853674 -0
    outer loop
      vertex -4.80943 10.6005 0
      vertex -5.21101 10.8455 4
      vertex -4.80943 10.6005 4
    endloop
  endfacet
  facet normal 0.520807 0.853674 0
    outer loop
      vertex -5.21101 10.8455 4
      vertex -4.80943 10.6005 0
      vertex -5.21101 10.8455 0
    endloop
  endfacet
  facet normal 0.463568 0.886061 -0
    outer loop
      vertex -5.21101 10.8455 0
      vertex -5.59349 11.0456 4
      vertex -5.21101 10.8455 4
    endloop
  endfacet
  facet normal 0.463568 0.886061 0
    outer loop
      vertex -5.59349 11.0456 4
      vertex -5.21101 10.8455 0
      vertex -5.59349 11.0456 0
    endloop
  endfacet
  facet normal 0.391618 0.920128 -0
    outer loop
      vertex -5.59349 11.0456 0
      vertex -5.95082 11.1977 4
      vertex -5.59349 11.0456 4
    endloop
  endfacet
  facet normal 0.391618 0.920128 0
    outer loop
      vertex -5.95082 11.1977 4
      vertex -5.59349 11.0456 0
      vertex -5.95082 11.1977 0
    endloop
  endfacet
  facet normal 0.2972 0.954815 -0
    outer loop
      vertex -5.95082 11.1977 0
      vertex -6.2774 11.2994 4
      vertex -5.95082 11.1977 4
    endloop
  endfacet
  facet normal 0.2972 0.954815 0
    outer loop
      vertex -6.2774 11.2994 4
      vertex -5.95082 11.1977 0
      vertex -6.2774 11.2994 0
    endloop
  endfacet
  facet normal 0.168283 0.985739 -0
    outer loop
      vertex -6.2774 11.2994 0
      vertex -6.56807 11.349 4
      vertex -6.2774 11.2994 4
    endloop
  endfacet
  facet normal 0.168283 0.985739 0
    outer loop
      vertex -6.56807 11.349 4
      vertex -6.2774 11.2994 0
      vertex -6.56807 11.349 0
    endloop
  endfacet
  facet normal -0.0128085 0.999918 0
    outer loop
      vertex -6.56807 11.349 0
      vertex -6.81822 11.3458 4
      vertex -6.56807 11.349 4
    endloop
  endfacet
  facet normal -0.0128085 0.999918 0
    outer loop
      vertex -6.81822 11.3458 4
      vertex -6.56807 11.349 0
      vertex -6.81822 11.3458 0
    endloop
  endfacet
  facet normal -0.262457 0.964944 0
    outer loop
      vertex -6.81822 11.3458 0
      vertex -7.02394 11.2898 4
      vertex -6.81822 11.3458 4
    endloop
  endfacet
  facet normal -0.262457 0.964944 0
    outer loop
      vertex -7.02394 11.2898 4
      vertex -6.81822 11.3458 0
      vertex -7.02394 11.2898 0
    endloop
  endfacet
  facet normal -0.563686 0.825989 0
    outer loop
      vertex -7.02394 11.2898 0
      vertex -7.18198 11.182 4
      vertex -7.02394 11.2898 4
    endloop
  endfacet
  facet normal -0.563686 0.825989 0
    outer loop
      vertex -7.18198 11.182 4
      vertex -7.02394 11.2898 0
      vertex -7.18198 11.182 0
    endloop
  endfacet
  facet normal -0.825989 0.563686 0
    outer loop
      vertex -7.28983 11.0239 0
      vertex -7.18198 11.182 4
      vertex -7.18198 11.182 0
    endloop
  endfacet
  facet normal -0.825989 0.563686 0
    outer loop
      vertex -7.18198 11.182 4
      vertex -7.28983 11.0239 0
      vertex -7.28983 11.0239 4
    endloop
  endfacet
  facet normal -0.964944 0.262457 0
    outer loop
      vertex -7.34578 10.8182 0
      vertex -7.28983 11.0239 4
      vertex -7.28983 11.0239 0
    endloop
  endfacet
  facet normal -0.964944 0.262457 0
    outer loop
      vertex -7.28983 11.0239 4
      vertex -7.34578 10.8182 0
      vertex -7.34578 10.8182 4
    endloop
  endfacet
  facet normal -0.999918 0.0128085 0
    outer loop
      vertex -7.34898 10.5681 0
      vertex -7.34578 10.8182 4
      vertex -7.34578 10.8182 0
    endloop
  endfacet
  facet normal -0.999918 0.0128085 0
    outer loop
      vertex -7.34578 10.8182 4
      vertex -7.34898 10.5681 0
      vertex -7.34898 10.5681 4
    endloop
  endfacet
  facet normal -0.985739 -0.168283 0
    outer loop
      vertex -7.29936 10.2774 0
      vertex -7.34898 10.5681 4
      vertex -7.34898 10.5681 0
    endloop
  endfacet
  facet normal -0.985739 -0.168283 0
    outer loop
      vertex -7.34898 10.5681 4
      vertex -7.29936 10.2774 0
      vertex -7.29936 10.2774 4
    endloop
  endfacet
  facet normal -0.954815 -0.2972 0
    outer loop
      vertex -7.19771 9.95082 0
      vertex -7.29936 10.2774 4
      vertex -7.29936 10.2774 0
    endloop
  endfacet
  facet normal -0.954815 -0.2972 0
    outer loop
      vertex -7.29936 10.2774 4
      vertex -7.19771 9.95082 0
      vertex -7.19771 9.95082 4
    endloop
  endfacet
  facet normal -0.920128 -0.391618 0
    outer loop
      vertex -7.04562 9.59349 0
      vertex -7.19771 9.95082 4
      vertex -7.19771 9.95082 0
    endloop
  endfacet
  facet normal -0.920128 -0.391618 0
    outer loop
      vertex -7.19771 9.95082 4
      vertex -7.04562 9.59349 0
      vertex -7.04562 9.59349 4
    endloop
  endfacet
  facet normal -0.886061 -0.463568 0
    outer loop
      vertex -6.84552 9.21101 0
      vertex -7.04562 9.59349 4
      vertex -7.04562 9.59349 0
    endloop
  endfacet
  facet normal -0.886061 -0.463568 0
    outer loop
      vertex -7.04562 9.59349 4
      vertex -6.84552 9.21101 0
      vertex -6.84552 9.21101 4
    endloop
  endfacet
  facet normal -0.853674 -0.520807 0
    outer loop
      vertex -6.60052 8.80943 0
      vertex -6.84552 9.21101 4
      vertex -6.84552 9.21101 0
    endloop
  endfacet
  facet normal -0.853674 -0.520807 0
    outer loop
      vertex -6.84552 9.21101 4
      vertex -6.60052 8.80943 0
      vertex -6.60052 8.80943 4
    endloop
  endfacet
  facet normal -0.822985 -0.568064 0
    outer loop
      vertex -6.31453 8.3951 0
      vertex -6.60052 8.80943 4
      vertex -6.60052 8.80943 0
    endloop
  endfacet
  facet normal -0.822985 -0.568064 0
    outer loop
      vertex -6.60052 8.80943 4
      vertex -6.31453 8.3951 0
      vertex -6.31453 8.3951 4
    endloop
  endfacet
  facet normal -0.793535 -0.608525 0
    outer loop
      vertex -5.99202 7.97453 0
      vertex -6.31453 8.3951 4
      vertex -6.31453 8.3951 0
    endloop
  endfacet
  facet normal -0.793535 -0.608525 0
    outer loop
      vertex -6.31453 8.3951 4
      vertex -5.99202 7.97453 0
      vertex -5.99202 7.97453 4
    endloop
  endfacet
  facet normal -0.764832 -0.64423 0
    outer loop
      vertex -5.63811 7.55437 0
      vertex -5.99202 7.97453 4
      vertex -5.99202 7.97453 0
    endloop
  endfacet
  facet normal -0.764832 -0.64423 0
    outer loop
      vertex -5.99202 7.97453 4
      vertex -5.63811 7.55437 0
      vertex -5.63811 7.55437 4
    endloop
  endfacet
  facet normal -0.736241 -0.676719 0
    outer loop
      vertex -5.25836 7.14122 0
      vertex -5.63811 7.55437 4
      vertex -5.63811 7.55437 0
    endloop
  endfacet
  facet normal -0.736241 -0.676719 0
    outer loop
      vertex -5.63811 7.55437 4
      vertex -5.25836 7.14122 0
      vertex -5.25836 7.14122 4
    endloop
  endfacet
  facet normal -0.707107 -0.707107 0
    outer loop
      vertex -4.85876 6.74162 0
      vertex -5.25836 7.14122 4
      vertex -5.25836 7.14122 0
    endloop
  endfacet
  facet normal -0.707107 -0.707107 0
    outer loop
      vertex -5.25836 7.14122 4
      vertex -4.85876 6.74162 0
      vertex -4.85876 6.74162 4
    endloop
  endfacet
  facet normal -0.676719 -0.736241 0
    outer loop
      vertex -4.85876 6.74162 0
      vertex -4.44562 6.36188 4
      vertex -4.85876 6.74162 4
    endloop
  endfacet
  facet normal -0.676719 -0.736241 -0
    outer loop
      vertex -4.44562 6.36188 4
      vertex -4.85876 6.74162 0
      vertex -4.44562 6.36188 0
    endloop
  endfacet
  facet normal -0.64423 -0.764832 0
    outer loop
      vertex -4.44562 6.36188 0
      vertex -4.02545 6.00797 4
      vertex -4.44562 6.36188 4
    endloop
  endfacet
  facet normal -0.64423 -0.764832 -0
    outer loop
      vertex -4.02545 6.00797 4
      vertex -4.44562 6.36188 0
      vertex -4.02545 6.00797 0
    endloop
  endfacet
  facet normal -0.608525 -0.793535 0
    outer loop
      vertex -4.02545 6.00797 0
      vertex -3.60489 5.68546 4
      vertex -4.02545 6.00797 4
    endloop
  endfacet
  facet normal -0.608525 -0.793535 -0
    outer loop
      vertex -3.60489 5.68546 4
      vertex -4.02545 6.00797 0
      vertex -3.60489 5.68546 0
    endloop
  endfacet
  facet normal -0.568064 -0.822985 0
    outer loop
      vertex -3.60489 5.68546 0
      vertex -3.19055 5.39946 4
      vertex -3.60489 5.68546 4
    endloop
  endfacet
  facet normal -0.568064 -0.822985 -0
    outer loop
      vertex -3.19055 5.39946 4
      vertex -3.60489 5.68546 0
      vertex -3.19055 5.39946 0
    endloop
  endfacet
  facet normal -0.520807 -0.853674 0
    outer loop
      vertex -3.19055 5.39946 0
      vertex -2.78897 5.15446 4
      vertex -3.19055 5.39946 4
    endloop
  endfacet
  facet normal -0.520807 -0.853674 -0
    outer loop
      vertex -2.78897 5.15446 4
      vertex -3.19055 5.39946 0
      vertex -2.78897 5.15446 0
    endloop
  endfacet
  facet normal -0.463568 -0.886061 0
    outer loop
      vertex -2.78897 5.15446 0
      vertex -2.40649 4.95436 4
      vertex -2.78897 5.15446 4
    endloop
  endfacet
  facet normal -0.463568 -0.886061 -0
    outer loop
      vertex -2.40649 4.95436 4
      vertex -2.78897 5.15446 0
      vertex -2.40649 4.95436 0
    endloop
  endfacet
  facet normal -0.391618 -0.920128 0
    outer loop
      vertex -2.40649 4.95436 0
      vertex -2.04916 4.80228 4
      vertex -2.40649 4.95436 4
    endloop
  endfacet
  facet normal -0.391618 -0.920128 -0
    outer loop
      vertex -2.04916 4.80228 4
      vertex -2.40649 4.95436 0
      vertex -2.04916 4.80228 0
    endloop
  endfacet
  facet normal -0.2972 -0.954815 0
    outer loop
      vertex -2.04916 4.80228 0
      vertex -1.72258 4.70062 4
      vertex -2.04916 4.80228 4
    endloop
  endfacet
  facet normal -0.2972 -0.954815 -0
    outer loop
      vertex -1.72258 4.70062 4
      vertex -2.04916 4.80228 0
      vertex -1.72258 4.70062 0
    endloop
  endfacet
  facet normal -0.168397 -0.985719 0
    outer loop
      vertex -1.72258 4.70062 0
      vertex -1.66586 4.69093 4
      vertex -1.72258 4.70062 4
    endloop
  endfacet
  facet normal -0.168397 -0.985719 -0
    outer loop
      vertex -1.66586 4.69093 4
      vertex -1.72258 4.70062 0
      vertex -1.66586 4.69093 0
    endloop
  endfacet
  facet normal -0.97189 -0.235437 0
    outer loop
      vertex -1.64822 4.61812 0
      vertex -1.66586 4.69093 4
      vertex -1.66586 4.69093 0
    endloop
  endfacet
  facet normal -0.97189 -0.235437 0
    outer loop
      vertex -1.66586 4.69093 4
      vertex -1.64822 4.61812 0
      vertex -1.64822 4.61812 4
    endloop
  endfacet
  facet normal 0.373713 0.927544 -0
    outer loop
      vertex -1.64822 4.61812 0
      vertex -1.81308 4.68454 4
      vertex -1.64822 4.61812 4
    endloop
  endfacet
  facet normal 0.373713 0.927544 0
    outer loop
      vertex -1.81308 4.68454 4
      vertex -1.64822 4.61812 0
      vertex -1.81308 4.68454 0
    endloop
  endfacet
  facet normal 0.298725 0.954339 -0
    outer loop
      vertex -1.81308 4.68454 0
      vertex -2.08772 4.77051 4
      vertex -1.81308 4.68454 4
    endloop
  endfacet
  facet normal 0.298725 0.954339 0
    outer loop
      vertex -2.08772 4.77051 4
      vertex -1.81308 4.68454 0
      vertex -2.08772 4.77051 0
    endloop
  endfacet
  facet normal 0.235351 0.971911 -0
    outer loop
      vertex -2.08772 4.77051 0
      vertex -2.39252 4.84431 4
      vertex -2.08772 4.77051 4
    endloop
  endfacet
  facet normal 0.235351 0.971911 0
    outer loop
      vertex -2.39252 4.84431 4
      vertex -2.08772 4.77051 0
      vertex -2.39252 4.84431 0
    endloop
  endfacet
  facet normal 0.180257 0.983619 -0
    outer loop
      vertex -2.39252 4.84431 0
      vertex -2.72266 4.90482 4
      vertex -2.39252 4.84431 4
    endloop
  endfacet
  facet normal 0.180257 0.983619 0
    outer loop
      vertex -2.72266 4.90482 4
      vertex -2.39252 4.84431 0
      vertex -2.72266 4.90482 0
    endloop
  endfacet
  facet normal 0.130857 0.991401 -0
    outer loop
      vertex -2.72266 4.90482 0
      vertex -3.07294 4.95105 4
      vertex -2.72266 4.90482 4
    endloop
  endfacet
  facet normal 0.130857 0.991401 0
    outer loop
      vertex -3.07294 4.95105 4
      vertex -2.72266 4.90482 0
      vertex -3.07294 4.95105 0
    endloop
  endfacet
  facet normal 0.085283 0.996357 -0
    outer loop
      vertex -3.07294 4.95105 0
      vertex -3.43785 4.98228 4
      vertex -3.07294 4.95105 4
    endloop
  endfacet
  facet normal 0.085283 0.996357 0
    outer loop
      vertex -3.43785 4.98228 4
      vertex -3.07294 4.95105 0
      vertex -3.43785 4.98228 0
    endloop
  endfacet
  facet normal 0.042053 0.999115 -0
    outer loop
      vertex -3.43785 4.98228 0
      vertex -3.81161 4.99802 4
      vertex -3.43785 4.98228 4
    endloop
  endfacet
  facet normal 0.042053 0.999115 0
    outer loop
      vertex -3.81161 4.99802 4
      vertex -3.43785 4.98228 0
      vertex -3.81161 4.99802 0
    endloop
  endfacet
  facet normal 0 1 -0
    outer loop
      vertex -3.81161 4.99802 0
      vertex -4.18837 4.99802 4
      vertex -3.81161 4.99802 4
    endloop
  endfacet
  facet normal 0 1 0
    outer loop
      vertex -4.18837 4.99802 4
      vertex -3.81161 4.99802 0
      vertex -4.18837 4.99802 0
    endloop
  endfacet
  facet normal -0.042053 0.999115 0
    outer loop
      vertex -4.18837 4.99802 0
      vertex -4.56213 4.98228 4
      vertex -4.18837 4.99802 4
    endloop
  endfacet
  facet normal -0.042053 0.999115 0
    outer loop
      vertex -4.56213 4.98228 4
      vertex -4.18837 4.99802 0
      vertex -4.56213 4.98228 0
    endloop
  endfacet
  facet normal -0.085283 0.996357 0
    outer loop
      vertex -4.56213 4.98228 0
      vertex -4.92705 4.95105 4
      vertex -4.56213 4.98228 4
    endloop
  endfacet
  facet normal -0.085283 0.996357 0
    outer loop
      vertex -4.92705 4.95105 4
      vertex -4.56213 4.98228 0
      vertex -4.92705 4.95105 0
    endloop
  endfacet
  facet normal -0.130857 0.991401 0
    outer loop
      vertex -4.92705 4.95105 0
      vertex -5.27733 4.90482 4
      vertex -4.92705 4.95105 4
    endloop
  endfacet
  facet normal -0.130857 0.991401 0
    outer loop
      vertex -5.27733 4.90482 4
      vertex -4.92705 4.95105 0
      vertex -5.27733 4.90482 0
    endloop
  endfacet
  facet normal -0.180257 0.983619 0
    outer loop
      vertex -5.27733 4.90482 0
      vertex -5.60747 4.84431 4
      vertex -5.27733 4.90482 4
    endloop
  endfacet
  facet normal -0.180257 0.983619 0
    outer loop
      vertex -5.60747 4.84431 4
      vertex -5.27733 4.90482 0
      vertex -5.60747 4.84431 0
    endloop
  endfacet
  facet normal -0.235351 0.971911 0
    outer loop
      vertex -5.60747 4.84431 0
      vertex -5.91226 4.77051 4
      vertex -5.60747 4.84431 4
    endloop
  endfacet
  facet normal -0.235351 0.971911 0
    outer loop
      vertex -5.91226 4.77051 4
      vertex -5.60747 4.84431 0
      vertex -5.91226 4.77051 0
    endloop
  endfacet
  facet normal -0.298725 0.954339 0
    outer loop
      vertex -5.91226 4.77051 0
      vertex -6.1869 4.68454 4
      vertex -5.91226 4.77051 4
    endloop
  endfacet
  facet normal -0.298725 0.954339 0
    outer loop
      vertex -6.1869 4.68454 4
      vertex -5.91226 4.77051 0
      vertex -6.1869 4.68454 0
    endloop
  endfacet
  facet normal -0.373716 0.927543 0
    outer loop
      vertex -6.1869 4.68454 0
      vertex -6.42705 4.58778 4
      vertex -6.1869 4.68454 4
    endloop
  endfacet
  facet normal -0.373716 0.927543 0
    outer loop
      vertex -6.42705 4.58778 4
      vertex -6.1869 4.68454 0
      vertex -6.42705 4.58778 0
    endloop
  endfacet
  facet normal -0.465032 0.885294 0
    outer loop
      vertex -6.42705 4.58778 0
      vertex -6.62891 4.48175 4
      vertex -6.42705 4.58778 4
    endloop
  endfacet
  facet normal -0.465032 0.885294 0
    outer loop
      vertex -6.62891 4.48175 4
      vertex -6.42705 4.58778 0
      vertex -6.62891 4.48175 0
    endloop
  endfacet
  facet normal -0.578032 0.816014 0
    outer loop
      vertex -6.62891 4.48175 0
      vertex -6.78932 4.36812 4
      vertex -6.62891 4.48175 4
    endloop
  endfacet
  facet normal -0.578032 0.816014 0
    outer loop
      vertex -6.78932 4.36812 4
      vertex -6.62891 4.48175 0
      vertex -6.78932 4.36812 0
    endloop
  endfacet
  facet normal -0.716061 0.698038 0
    outer loop
      vertex -6.90575 4.24869 0
      vertex -6.78932 4.36812 4
      vertex -6.78932 4.36812 0
    endloop
  endfacet
  facet normal -0.716061 0.698038 0
    outer loop
      vertex -6.78932 4.36812 4
      vertex -6.90575 4.24869 0
      vertex -6.90575 4.24869 4
    endloop
  endfacet
  facet normal -0.867966 0.496624 0
    outer loop
      vertex -6.97633 4.12532 0
      vertex -6.90575 4.24869 4
      vertex -6.90575 4.24869 0
    endloop
  endfacet
  facet normal -0.867966 0.496624 0
    outer loop
      vertex -6.90575 4.24869 4
      vertex -6.97633 4.12532 0
      vertex -6.97633 4.12532 4
    endloop
  endfacet
  facet normal -0.982632 0.185567 0
    outer loop
      vertex -7 4 0
      vertex -6.97633 4.12532 4
      vertex -6.97633 4.12532 0
    endloop
  endfacet
  facet normal -0.982632 0.185567 0
    outer loop
      vertex -6.97633 4.12532 4
      vertex -7 4 0
      vertex -7 4 4
    endloop
  endfacet
  facet normal -0.982636 -0.185545 0
    outer loop
      vertex -6.97633 3.87466 0
      vertex -7 4 4
      vertex -7 4 0
    endloop
  endfacet
  facet normal -0.982636 -0.185545 0
    outer loop
      vertex -7 4 4
      vertex -6.97633 3.87466 0
      vertex -6.97633 3.87466 4
    endloop
  endfacet
  facet normal -0.867966 -0.496624 0
    outer loop
      vertex -6.90575 3.7513 0
      vertex -6.97633 3.87466 4
      vertex -6.97633 3.87466 0
    endloop
  endfacet
  facet normal -0.867966 -0.496624 0
    outer loop
      vertex -6.97633 3.87466 4
      vertex -6.90575 3.7513 0
      vertex -6.90575 3.7513 4
    endloop
  endfacet
  facet normal -0.716061 -0.698038 0
    outer loop
      vertex -6.78932 3.63187 0
      vertex -6.90575 3.7513 4
      vertex -6.90575 3.7513 0
    endloop
  endfacet
  facet normal -0.716061 -0.698038 0
    outer loop
      vertex -6.90575 3.7513 4
      vertex -6.78932 3.63187 0
      vertex -6.78932 3.63187 4
    endloop
  endfacet
  facet normal -0.578032 -0.816014 0
    outer loop
      vertex -6.78932 3.63187 0
      vertex -6.62891 3.51823 4
      vertex -6.78932 3.63187 4
    endloop
  endfacet
  facet normal -0.578032 -0.816014 -0
    outer loop
      vertex -6.62891 3.51823 4
      vertex -6.78932 3.63187 0
      vertex -6.62891 3.51823 0
    endloop
  endfacet
  facet normal -0.465032 -0.885294 0
    outer loop
      vertex -6.62891 3.51823 0
      vertex -6.42705 3.4122 4
      vertex -6.62891 3.51823 4
    endloop
  endfacet
  facet normal -0.465032 -0.885294 -0
    outer loop
      vertex -6.42705 3.4122 4
      vertex -6.62891 3.51823 0
      vertex -6.42705 3.4122 0
    endloop
  endfacet
  facet normal -0.373716 -0.927543 0
    outer loop
      vertex -6.42705 3.4122 0
      vertex -6.1869 3.31544 4
      vertex -6.42705 3.4122 4
    endloop
  endfacet
  facet normal -0.373716 -0.927543 -0
    outer loop
      vertex -6.1869 3.31544 4
      vertex -6.42705 3.4122 0
      vertex -6.1869 3.31544 0
    endloop
  endfacet
  facet normal -0.298725 -0.954339 0
    outer loop
      vertex -6.1869 3.31544 0
      vertex -5.91226 3.22948 4
      vertex -6.1869 3.31544 4
    endloop
  endfacet
  facet normal -0.298725 -0.954339 -0
    outer loop
      vertex -5.91226 3.22948 4
      vertex -6.1869 3.31544 0
      vertex -5.91226 3.22948 0
    endloop
  endfacet
  facet normal -0.235351 -0.971911 0
    outer loop
      vertex -5.91226 3.22948 0
      vertex -5.60747 3.15567 4
      vertex -5.91226 3.22948 4
    endloop
  endfacet
  facet normal -0.235351 -0.971911 -0
    outer loop
      vertex -5.60747 3.15567 4
      vertex -5.91226 3.22948 0
      vertex -5.60747 3.15567 0
    endloop
  endfacet
  facet normal -0.180257 -0.983619 0
    outer loop
      vertex -5.60747 3.15567 0
      vertex -5.27733 3.09517 4
      vertex -5.60747 3.15567 4
    endloop
  endfacet
  facet normal -0.180257 -0.983619 -0
    outer loop
      vertex -5.27733 3.09517 4
      vertex -5.60747 3.15567 0
      vertex -5.27733 3.09517 0
    endloop
  endfacet
  facet normal -0.130857 -0.991401 0
    outer loop
      vertex -5.27733 3.09517 0
      vertex -4.92705 3.04893 4
      vertex -5.27733 3.09517 4
    endloop
  endfacet
  facet normal -0.130857 -0.991401 -0
    outer loop
      vertex -4.92705 3.04893 4
      vertex -5.27733 3.09517 0
      vertex -4.92705 3.04893 0
    endloop
  endfacet
  facet normal -0.085283 -0.996357 0
    outer loop
      vertex -4.92705 3.04893 0
      vertex -4.56213 3.0177 4
      vertex -4.92705 3.04893 4
    endloop
  endfacet
  facet normal -0.085283 -0.996357 -0
    outer loop
      vertex -4.56213 3.0177 4
      vertex -4.92705 3.04893 0
      vertex -4.56213 3.0177 0
    endloop
  endfacet
  facet normal -0.042053 -0.999115 0
    outer loop
      vertex -4.56213 3.0177 0
      vertex -4.18837 3.00197 4
      vertex -4.56213 3.0177 4
    endloop
  endfacet
  facet normal -0.042053 -0.999115 -0
    outer loop
      vertex -4.18837 3.00197 4
      vertex -4.56213 3.0177 0
      vertex -4.18837 3.00197 0
    endloop
  endfacet
  facet normal 0 -1 0
    outer loop
      vertex -4.18837 3.00197 0
      vertex -3.81161 3.00197 4
      vertex -4.18837 3.00197 4
    endloop
  endfacet
  facet normal 0 -1 -0
    outer loop
      vertex -3.81161 3.00197 4
      vertex -4.18837 3.00197 0
      vertex -3.81161 3.00197 0
    endloop
  endfacet
  facet normal 0.042053 -0.999115 0
    outer loop
      vertex -3.81161 3.00197 0
      vertex -3.43785 3.0177 4
      vertex -3.81161 3.00197 4
    endloop
  endfacet
  facet normal 0.042053 -0.999115 0
    outer loop
      vertex -3.43785 3.0177 4
      vertex -3.81161 3.00197 0
      vertex -3.43785 3.0177 0
    endloop
  endfacet
  facet normal 0.085283 -0.996357 0
    outer loop
      vertex -3.43785 3.0177 0
      vertex -3.07294 3.04893 4
      vertex -3.43785 3.0177 4
    endloop
  endfacet
  facet normal 0.085283 -0.996357 0
    outer loop
      vertex -3.07294 3.04893 4
      vertex -3.43785 3.0177 0
      vertex -3.07294 3.04893 0
    endloop
  endfacet
  facet normal 0.130857 -0.991401 0
    outer loop
      vertex -3.07294 3.04893 0
      vertex -2.72266 3.09517 4
      vertex -3.07294 3.04893 4
    endloop
  endfacet
  facet normal 0.130857 -0.991401 0
    outer loop
      vertex -2.72266 3.09517 4
      vertex -3.07294 3.04893 0
      vertex -2.72266 3.09517 0
    endloop
  endfacet
  facet normal 0.180257 -0.983619 0
    outer loop
      vertex -2.72266 3.09517 0
      vertex -2.39252 3.15567 4
      vertex -2.72266 3.09517 4
    endloop
  endfacet
  facet normal 0.180257 -0.983619 0
    outer loop
      vertex -2.39252 3.15567 4
      vertex -2.72266 3.09517 0
      vertex -2.39252 3.15567 0
    endloop
  endfacet
  facet normal 0.235351 -0.971911 0
    outer loop
      vertex -2.39252 3.15567 0
      vertex -2.08772 3.22948 4
      vertex -2.39252 3.15567 4
    endloop
  endfacet
  facet normal 0.235351 -0.971911 0
    outer loop
      vertex -2.08772 3.22948 4
      vertex -2.39252 3.15567 0
      vertex -2.08772 3.22948 0
    endloop
  endfacet
  facet normal 0.298725 -0.954339 0
    outer loop
      vertex -2.08772 3.22948 0
      vertex -1.81308 3.31544 4
      vertex -2.08772 3.22948 4
    endloop
  endfacet
  facet normal 0.298725 -0.954339 0
    outer loop
      vertex -1.81308 3.31544 4
      vertex -2.08772 3.22948 0
      vertex -1.81308 3.31544 0
    endloop
  endfacet
  facet normal 0.373716 -0.927543 0
    outer loop
      vertex -1.81308 3.31544 0
      vertex -1.57294 3.4122 4
      vertex -1.81308 3.31544 4
    endloop
  endfacet
  facet normal 0.373716 -0.927543 0
    outer loop
      vertex -1.57294 3.4122 4
      vertex -1.81308 3.31544 0
      vertex -1.57294 3.4122 0
    endloop
  endfacet
  facet normal 0.465032 -0.885294 0
    outer loop
      vertex -1.57294 3.4122 0
      vertex -1.37108 3.51823 4
      vertex -1.57294 3.4122 4
    endloop
  endfacet
  facet normal 0.465032 -0.885294 0
    outer loop
      vertex -1.37108 3.51823 4
      vertex -1.57294 3.4122 0
      vertex -1.37108 3.51823 0
    endloop
  endfacet
  facet normal 0.578105 -0.815962 0
    outer loop
      vertex -1.37108 3.51823 0
      vertex -1.33569 3.5433 4
      vertex -1.37108 3.51823 4
    endloop
  endfacet
  facet normal 0.578105 -0.815962 0
    outer loop
      vertex -1.33569 3.5433 4
      vertex -1.37108 3.51823 0
      vertex -1.33569 3.5433 0
    endloop
  endfacet
  facet normal -0.92754 -0.373723 0
    outer loop
      vertex -1.17557 3.14589 0
      vertex -1.33569 3.5433 4
      vertex -1.33569 3.5433 0
    endloop
  endfacet
  facet normal -0.92754 -0.373723 0
    outer loop
      vertex -1.33569 3.5433 4
      vertex -1.17557 3.14589 0
      vertex -1.17557 3.14589 4
    endloop
  endfacet
  facet normal -0.885301 -0.465018 0
    outer loop
      vertex -1.06487 2.93513 0
      vertex -1.17557 3.14589 4
      vertex -1.17557 3.14589 0
    endloop
  endfacet
  facet normal -0.885301 -0.465018 0
    outer loop
      vertex -1.17557 3.14589 4
      vertex -1.06487 2.93513 0
      vertex -1.06487 2.93513 4
    endloop
  endfacet
  facet normal -0.885301 -0.465018 0
    outer loop
      vertex -0.963501 2.74216 0
      vertex -0.963501 2.74216 6.93216e-17
      vertex -1.06487 2.93513 0
    endloop
  endfacet
  facet normal -0.816001 -0.578051 0
    outer loop
      vertex -0.736237 2.42134 0
      vertex -0.963501 2.74216 6.93216e-17
      vertex -0.963501 2.74216 0
    endloop
  endfacet
  facet normal -0.816001 -0.578051 0
    outer loop
      vertex -0.963501 2.74216 6.93216e-17
      vertex -0.736237 2.42134 0
      vertex -0.736237 2.42134 1.98402e-16
    endloop
  endfacet
  facet normal -0.698038 -0.716061 0
    outer loop
      vertex -0.736237 2.42134 0
      vertex -0.497375 2.18849 3.09496e-16
      vertex -0.736237 2.42134 1.98402e-16
    endloop
  endfacet
  facet normal -0.698038 -0.716061 -0
    outer loop
      vertex -0.497375 2.18849 3.09496e-16
      vertex -0.736237 2.42134 0
      vertex -0.497375 2.18849 0
    endloop
  endfacet
  facet normal -0.496688 -0.867929 0
    outer loop
      vertex -0.497375 2.18849 0
      vertex -0.250656 2.0473 4.00854e-16
      vertex -0.497375 2.18849 3.09496e-16
    endloop
  endfacet
  facet normal -0.496688 -0.867929 -0
    outer loop
      vertex -0.250656 2.0473 4.00854e-16
      vertex -0.497375 2.18849 0
      vertex -0.250656 2.0473 0
    endloop
  endfacet
  facet normal -0.185441 -0.982655 0
    outer loop
      vertex -0.250656 2.0473 0
      vertex 0 2 4.71028e-16
      vertex -0.250656 2.0473 4.00854e-16
    endloop
  endfacet
  facet normal -0.185441 -0.982655 -0
    outer loop
      vertex 0 2 4.71028e-16
      vertex -0.250656 2.0473 0
      vertex 0 2 0
    endloop
  endfacet
  facet normal 0.185441 -0.982655 0
    outer loop
      vertex 0 2 0
      vertex 0.250656 2.0473 5.1892e-16
      vertex 0 2 4.71028e-16
    endloop
  endfacet
  facet normal 0.185441 -0.982655 0
    outer loop
      vertex 0.250656 2.0473 5.1892e-16
      vertex 0 2 0
      vertex 0.250656 2.0473 0
    endloop
  endfacet
endsolid OpenSCAD_Model
