solid OpenSCAD_Model
  facet normal 0.906308 -0.422618 0
    outer loop
      vertex 5 29.8534 3
      vertex 16.2482 53.9752 -2
      vertex 16.2482 53.9752 3
    endloop
  endfacet
  facet normal 0.906308 -0.422618 0
    outer loop
      vertex 16.2482 53.9752 -2
      vertex 5 29.8534 3
      vertex 5 29.8534 -2
    endloop
  endfacet
  facet normal -0.906308 0.422618 0
    outer loop
      vertex -4.83542 31.9546 -2
      vertex 7.73136 58.9042 3
      vertex 7.73136 58.9042 -2
    endloop
  endfacet
  facet normal -0.906308 0.422618 0
    outer loop
      vertex 7.73136 58.9042 3
      vertex -4.83542 31.9546 -2
      vertex -4.83542 31.9546 3
    endloop
  endfacet
  facet normal -0 0 1
    outer loop
      vertex 7.73136 58.9042 3
      vertex 10.6636 58.7308 3
      vertex 9.41843 59.3114 3
    endloop
  endfacet
  facet normal 0 0 1
    outer loop
      vertex 10.6636 58.7308 3
      vertex 7.73136 58.9042 3
      vertex 11.5445 56.3106 3
    endloop
  endfacet
  facet normal 0 0 1
    outer loop
      vertex 11.5445 56.3106 3
      vertex 7.73136 58.9042 3
      vertex 8.53175 49.8498 3
    endloop
  endfacet
  facet normal 0 0 1
    outer loop
      vertex 14.8563 56.7757 3
      vertex 16.2482 53.9752 3
      vertex 16.2266 55.7106 3
    endloop
  endfacet
  facet normal 0 0 1
    outer loop
      vertex 11.9976 56.0993 3
      vertex 14.8563 56.7757 3
      vertex 14.4178 56.9802 3
    endloop
  endfacet
  facet normal 0 0 1
    outer loop
      vertex 14.8563 56.7757 3
      vertex 11.9976 56.0993 3
      vertex 16.2482 53.9752 3
    endloop
  endfacet
  facet normal 0 0 1
    outer loop
      vertex 8.98491 49.6385 3
      vertex 16.2482 53.9752 3
      vertex 11.9976 56.0993 3
    endloop
  endfacet
  facet normal -0 0 1
    outer loop
      vertex 8.98491 49.6385 3
      vertex 5 29.8534 3
      vertex 16.2482 53.9752 3
    endloop
  endfacet
  facet normal 0 0 1
    outer loop
      vertex 8.53175 49.8498 3
      vertex 5 29.8534 3
      vertex 8.98491 49.6385 3
    endloop
  endfacet
  facet normal 0 0 1
    outer loop
      vertex -4.83542 31.9546 3
      vertex 8.53175 49.8498 3
      vertex 7.73136 58.9042 3
    endloop
  endfacet
  facet normal -0 0 1
    outer loop
      vertex 3.7 0 3
      vertex 5 -31 3
      vertex 5 29.8534 3
    endloop
  endfacet
  facet normal -0 0 1
    outer loop
      vertex 3.20429 -1.85 3
      vertex 5 -31 3
      vertex 3.7 0 3
    endloop
  endfacet
  facet normal 0 0 1
    outer loop
      vertex 5 29.8534 3
      vertex 2 16.5 3
      vertex 3.7 0 3
    endloop
  endfacet
  facet normal 0 0 1
    outer loop
      vertex 8.53175 49.8498 3
      vertex -4.83542 31.9546 3
      vertex 5 29.8534 3
    endloop
  endfacet
  facet normal 0 0 1
    outer loop
      vertex 5 29.8534 3
      vertex 1.24698 18.0637 3
      vertex 2 16.5 3
    endloop
  endfacet
  facet normal -0 0 1
    outer loop
      vertex -4.80194 31.8678 3
      vertex 5 29.8534 3
      vertex -4.79501 31.8733 3
    endloop
  endfacet
  facet normal 0 0 1
    outer loop
      vertex 5 29.8534 3
      vertex -0.445042 18.4499 3
      vertex 1.24698 18.0637 3
    endloop
  endfacet
  facet normal 0 0 1
    outer loop
      vertex -0.445042 18.4499 3
      vertex -4.80194 31.8678 3
      vertex -1.80194 17.3678 3
    endloop
  endfacet
  facet normal 0 0 1
    outer loop
      vertex 5 29.8534 3
      vertex -4.80194 31.8678 3
      vertex -0.445042 18.4499 3
    endloop
  endfacet
  facet normal 0 0 1
    outer loop
      vertex 5 29.8534 3
      vertex -4.83542 31.9546 3
      vertex -4.79501 31.8733 3
    endloop
  endfacet
  facet normal -0 0 1
    outer loop
      vertex 1.85 -3.20429 3
      vertex 5 -31 3
      vertex 3.20429 -1.85 3
    endloop
  endfacet
  facet normal -0 0 1
    outer loop
      vertex 0 -3.7 3
      vertex 5 -31 3
      vertex 1.85 -3.20429 3
    endloop
  endfacet
  facet normal 0 0 1
    outer loop
      vertex -4.80194 -31.8678 3
      vertex 5 -31 3
      vertex 0 -3.7 3
    endloop
  endfacet
  facet normal 0 -0 1
    outer loop
      vertex 2.55496 -32.9499 3
      vertex 5 -31 3
      vertex -4.80194 -31.8678 3
    endloop
  endfacet
  facet normal 0 0 1
    outer loop
      vertex -4.80194 -31.8678 3
      vertex 0 -3.7 3
      vertex -1.85 -3.20429 3
    endloop
  endfacet
  facet normal 0 0 1
    outer loop
      vertex -4.80194 -31.8678 3
      vertex -1.85 -3.20429 3
      vertex -3.20429 -1.85 3
    endloop
  endfacet
  facet normal 0 0 1
    outer loop
      vertex 5 -31 3
      vertex 2.55496 -32.9499 3
      vertex 4.24698 -32.5637 3
    endloop
  endfacet
  facet normal 0 0 1
    outer loop
      vertex -4.80194 -31.8678 3
      vertex -3.20429 -1.85 3
      vertex -3.7 0 3
    endloop
  endfacet
  facet normal 0 0 1
    outer loop
      vertex -1.80194 17.3678 3
      vertex -4.80194 31.8678 3
      vertex -3.7 0 3
    endloop
  endfacet
  facet normal 0 0 1
    outer loop
      vertex -3.7 0 3
      vertex -4.80194 31.8678 3
      vertex -4.80194 -31.8678 3
    endloop
  endfacet
  facet normal 0 0 1
    outer loop
      vertex 2.55496 -32.9499 3
      vertex -4.80194 -31.8678 3
      vertex -3.44504 -32.9499 3
    endloop
  endfacet
  facet normal 0 0 -1
    outer loop
      vertex 2.55496 -32.9499 -2
      vertex 5 -31 -2
      vertex 4.24698 -32.5637 -2
    endloop
  endfacet
  facet normal 0 0 -1
    outer loop
      vertex 16.2482 53.9752 -2
      vertex 14.8563 56.7757 -2
      vertex 16.2266 55.7106 -2
    endloop
  endfacet
  facet normal 0 0 -1
    outer loop
      vertex 11.9976 56.0993 -2
      vertex 14.8563 56.7757 -2
      vertex 16.2482 53.9752 -2
    endloop
  endfacet
  facet normal -0 0 -1
    outer loop
      vertex 14.8563 56.7757 -2
      vertex 11.9976 56.0993 -2
      vertex 14.4178 56.9802 -2
    endloop
  endfacet
  facet normal -0 0 -1
    outer loop
      vertex 16.2482 53.9752 -2
      vertex 8.98491 49.6385 -2
      vertex 11.9976 56.0993 -2
    endloop
  endfacet
  facet normal 0 0 -1
    outer loop
      vertex 5 29.8534 -2
      vertex 8.98491 49.6385 -2
      vertex 16.2482 53.9752 -2
    endloop
  endfacet
  facet normal 0 0 -1
    outer loop
      vertex 5 29.8534 -2
      vertex 8.53175 49.8498 -2
      vertex 8.98491 49.6385 -2
    endloop
  endfacet
  facet normal 0 0 -1
    outer loop
      vertex -4.83542 31.9546 -2
      vertex 8.53175 49.8498 -2
      vertex 5 29.8534 -2
    endloop
  endfacet
  facet normal 0 0 -1
    outer loop
      vertex 5 -31 -2
      vertex 2.6 0 -2
      vertex 5 29.8534 -2
    endloop
  endfacet
  facet normal 0 0 -1
    outer loop
      vertex 1.99172 1.67125 -2
      vertex 5 29.8534 -2
      vertex 2.6 0 -2
    endloop
  endfacet
  facet normal 0 0 -1
    outer loop
      vertex 0.451485 2.5605 -2
      vertex 5 29.8534 -2
      vertex 1.99172 1.67125 -2
    endloop
  endfacet
  facet normal 0 0 -1
    outer loop
      vertex -4.80194 31.8678 -2
      vertex 5 29.8534 -2
      vertex 0.451485 2.5605 -2
    endloop
  endfacet
  facet normal 0 0 -1
    outer loop
      vertex -4.80194 31.8678 -2
      vertex 0.451485 2.5605 -2
      vertex -1.3 2.25167 -2
    endloop
  endfacet
  facet normal 0 0 -1
    outer loop
      vertex -4.80194 31.8678 -2
      vertex -1.3 2.25167 -2
      vertex -2.4432 0.889252 -2
    endloop
  endfacet
  facet normal -0 0 -1
    outer loop
      vertex -2.4432 -0.889252 -2
      vertex -4.80194 -31.8678 -2
      vertex -2.4432 0.889252 -2
    endloop
  endfacet
  facet normal 0 0 -1
    outer loop
      vertex -4.83542 31.9546 -2
      vertex 5 29.8534 -2
      vertex -4.79501 31.8733 -2
    endloop
  endfacet
  facet normal -0 0 -1
    outer loop
      vertex 8.53175 49.8498 -2
      vertex -4.83542 31.9546 -2
      vertex 7.73136 58.9042 -2
    endloop
  endfacet
  facet normal 0 0 -1
    outer loop
      vertex 7.73136 58.9042 -2
      vertex 10.6636 58.7308 -2
      vertex 11.5445 56.3106 -2
    endloop
  endfacet
  facet normal 0 0 -1
    outer loop
      vertex 7.73136 58.9042 -2
      vertex 11.5445 56.3106 -2
      vertex 8.53175 49.8498 -2
    endloop
  endfacet
  facet normal 0 0 -1
    outer loop
      vertex 10.6636 58.7308 -2
      vertex 7.73136 58.9042 -2
      vertex 9.41843 59.3114 -2
    endloop
  endfacet
  facet normal 0 0 -1
    outer loop
      vertex -4.80194 31.8678 -2
      vertex -2.4432 0.889252 -2
      vertex -4.80194 -31.8678 -2
    endloop
  endfacet
  facet normal 0 0 -1
    outer loop
      vertex 5 29.8534 -2
      vertex -4.80194 31.8678 -2
      vertex -4.79501 31.8733 -2
    endloop
  endfacet
  facet normal 0 0 -1
    outer loop
      vertex 5 -31 -2
      vertex 2.55496 -32.9499 -2
      vertex -4.80194 -31.8678 -2
    endloop
  endfacet
  facet normal 0 0 -1
    outer loop
      vertex 5 -31 -2
      vertex 1.99172 -1.67125 -2
      vertex 2.6 0 -2
    endloop
  endfacet
  facet normal 0 0 -1
    outer loop
      vertex 5 -31 -2
      vertex 0.451485 -2.5605 -2
      vertex 1.99172 -1.67125 -2
    endloop
  endfacet
  facet normal 0 0 -1
    outer loop
      vertex -4.80194 -31.8678 -2
      vertex 2.55496 -32.9499 -2
      vertex -3.44504 -32.9499 -2
    endloop
  endfacet
  facet normal -0 0 -1
    outer loop
      vertex 5 -31 -2
      vertex -4.80194 -31.8678 -2
      vertex 0.451485 -2.5605 -2
    endloop
  endfacet
  facet normal -0 0 -1
    outer loop
      vertex -1.3 -2.25167 -2
      vertex -4.80194 -31.8678 -2
      vertex -2.4432 -0.889252 -2
    endloop
  endfacet
  facet normal -0 0 -1
    outer loop
      vertex 0.451485 -2.5605 -2
      vertex -4.80194 -31.8678 -2
      vertex -1.3 -2.25167 -2
    endloop
  endfacet
  facet normal -0.89549 -0.445083 0
    outer loop
      vertex -4.79501 31.8733 -2
      vertex -4.83542 31.9546 3
      vertex -4.83542 31.9546 -2
    endloop
  endfacet
  facet normal -0.89549 -0.445083 0
    outer loop
      vertex -4.83542 31.9546 3
      vertex -4.79501 31.8733 -2
      vertex -4.79501 31.8733 3
    endloop
  endfacet
  facet normal -0.234658 0.972078 0
    outer loop
      vertex 9.41843 59.3114 -2
      vertex 7.73136 58.9042 3
      vertex 9.41843 59.3114 3
    endloop
  endfacet
  facet normal -0.234658 0.972078 0
    outer loop
      vertex 7.73136 58.9042 3
      vertex 9.41843 59.3114 -2
      vertex 7.73136 58.9042 -2
    endloop
  endfacet
  facet normal 0.613696 0.789543 -0
    outer loop
      vertex 16.2266 55.7106 -2
      vertex 14.8563 56.7757 3
      vertex 16.2266 55.7106 3
    endloop
  endfacet
  facet normal 0.613696 0.789543 0
    outer loop
      vertex 14.8563 56.7757 3
      vertex 16.2266 55.7106 -2
      vertex 14.8563 56.7757 -2
    endloop
  endfacet
  facet normal 0.999922 0.0124659 0
    outer loop
      vertex 16.2482 53.9752 3
      vertex 16.2266 55.7106 -2
      vertex 16.2266 55.7106 3
    endloop
  endfacet
  facet normal 0.999922 0.0124659 0
    outer loop
      vertex 16.2266 55.7106 -2
      vertex 16.2482 53.9752 3
      vertex 16.2482 53.9752 -2
    endloop
  endfacet
  facet normal 0.422619 0.906307 -0
    outer loop
      vertex 14.8563 56.7757 -2
      vertex 14.4178 56.9802 3
      vertex 14.8563 56.7757 3
    endloop
  endfacet
  facet normal 0.422619 0.906307 0
    outer loop
      vertex 14.4178 56.9802 3
      vertex 14.8563 56.7757 -2
      vertex 14.4178 56.9802 -2
    endloop
  endfacet
  facet normal 0.422618 0.906308 -0
    outer loop
      vertex 10.6636 58.7308 -2
      vertex 9.41843 59.3114 3
      vertex 10.6636 58.7308 3
    endloop
  endfacet
  facet normal 0.422618 0.906308 0
    outer loop
      vertex 9.41843 59.3114 3
      vertex 10.6636 58.7308 -2
      vertex 9.41843 59.3114 -2
    endloop
  endfacet
  facet normal 0.906308 -0.422618 0
    outer loop
      vertex 8.53175 49.8498 3
      vertex 11.5445 56.3106 -2
      vertex 11.5445 56.3106 3
    endloop
  endfacet
  facet normal 0.906308 -0.422618 0
    outer loop
      vertex 11.5445 56.3106 -2
      vertex 8.53175 49.8498 3
      vertex 8.53175 49.8498 -2
    endloop
  endfacet
  facet normal -0.906308 0.422618 0
    outer loop
      vertex 8.98491 49.6385 -2
      vertex 11.9976 56.0993 3
      vertex 11.9976 56.0993 -2
    endloop
  endfacet
  facet normal -0.906308 0.422618 0
    outer loop
      vertex 11.9976 56.0993 3
      vertex 8.98491 49.6385 -2
      vertex 8.98491 49.6385 3
    endloop
  endfacet
  facet normal 0.422615 0.906309 -0
    outer loop
      vertex 8.98491 49.6385 -2
      vertex 8.53175 49.8498 3
      vertex 8.98491 49.6385 3
    endloop
  endfacet
  facet normal 0.422615 0.906309 0
    outer loop
      vertex 8.53175 49.8498 3
      vertex 8.98491 49.6385 -2
      vertex 8.53175 49.8498 -2
    endloop
  endfacet
  facet normal 0.939693 0.34202 0
    outer loop
      vertex 11.5445 56.3106 3
      vertex 10.6636 58.7308 -2
      vertex 10.6636 58.7308 3
    endloop
  endfacet
  facet normal 0.939693 0.34202 0
    outer loop
      vertex 10.6636 58.7308 -2
      vertex 11.5445 56.3106 3
      vertex 11.5445 56.3106 -2
    endloop
  endfacet
  facet normal -0.342021 0.939692 0
    outer loop
      vertex 14.4178 56.9802 -2
      vertex 11.9976 56.0993 3
      vertex 14.4178 56.9802 3
    endloop
  endfacet
  facet normal -0.342021 0.939692 0
    outer loop
      vertex 11.9976 56.0993 3
      vertex 14.4178 56.9802 -2
      vertex 11.9976 56.0993 -2
    endloop
  endfacet
  facet normal -1 0 0
    outer loop
      vertex -4.80194 -31.8678 -2
      vertex -4.80194 31.8678 3
      vertex -4.80194 31.8678 -2
    endloop
  endfacet
  facet normal -1 -0 0
    outer loop
      vertex -4.80194 31.8678 3
      vertex -4.80194 -31.8678 -2
      vertex -4.80194 -31.8678 3
    endloop
  endfacet
  facet normal 1 -0 0
    outer loop
      vertex 5 -31 3
      vertex 5 29.8534 -2
      vertex 5 29.8534 3
    endloop
  endfacet
  facet normal 1 0 0
    outer loop
      vertex 5 29.8534 -2
      vertex 5 -31 3
      vertex 5 -31 -2
    endloop
  endfacet
  facet normal -0.623487 0.781833 0
    outer loop
      vertex -4.79501 31.8733 -2
      vertex -4.80194 31.8678 3
      vertex -4.79501 31.8733 3
    endloop
  endfacet
  facet normal -0.623487 0.781833 0
    outer loop
      vertex -4.80194 31.8678 3
      vertex -4.79501 31.8733 -2
      vertex -4.80194 31.8678 -2
    endloop
  endfacet
  facet normal 0.222521 -0.974928 0
    outer loop
      vertex 2.55496 -32.9499 -2
      vertex 4.24698 -32.5637 3
      vertex 2.55496 -32.9499 3
    endloop
  endfacet
  facet normal 0.222521 -0.974928 0
    outer loop
      vertex 4.24698 -32.5637 3
      vertex 2.55496 -32.9499 -2
      vertex 4.24698 -32.5637 -2
    endloop
  endfacet
  facet normal -0.62349 -0.781831 0
    outer loop
      vertex -4.80194 -31.8678 -2
      vertex -3.44504 -32.9499 3
      vertex -4.80194 -31.8678 3
    endloop
  endfacet
  facet normal -0.62349 -0.781831 -0
    outer loop
      vertex -3.44504 -32.9499 3
      vertex -4.80194 -31.8678 -2
      vertex -3.44504 -32.9499 -2
    endloop
  endfacet
  facet normal 0.900969 -0.433884 0
    outer loop
      vertex 4.24698 -32.5637 3
      vertex 5 -31 -2
      vertex 5 -31 3
    endloop
  endfacet
  facet normal 0.900969 -0.433884 0
    outer loop
      vertex 5 -31 -2
      vertex 4.24698 -32.5637 3
      vertex 4.24698 -32.5637 -2
    endloop
  endfacet
  facet normal 0 -1 0
    outer loop
      vertex -3.44504 -32.9499 -2
      vertex 2.55496 -32.9499 3
      vertex -3.44504 -32.9499 3
    endloop
  endfacet
  facet normal 0 -1 -0
    outer loop
      vertex 2.55496 -32.9499 3
      vertex -3.44504 -32.9499 -2
      vertex 2.55496 -32.9499 -2
    endloop
  endfacet
  facet normal 0.62349 -0.781831 0
    outer loop
      vertex -1.80194 17.3678 1
      vertex -0.445042 18.4499 3
      vertex -1.80194 17.3678 3
    endloop
  endfacet
  facet normal 0.62349 -0.781831 0
    outer loop
      vertex -0.445042 18.4499 3
      vertex -1.80194 17.3678 1
      vertex -0.445042 18.4499 1
    endloop
  endfacet
  facet normal -0.994734 -0.102488 0
    outer loop
      vertex 3.7 0 1
      vertex 2 16.5 3
      vertex 2 16.5 1
    endloop
  endfacet
  facet normal -0.994734 -0.102488 0
    outer loop
      vertex 2 16.5 3
      vertex 3.7 0 1
      vertex 3.7 0 3
    endloop
  endfacet
  facet normal 0 0 1
    outer loop
      vertex 3.7 0 1
      vertex 2.6 0 1
      vertex 3.20429 -1.85 1
    endloop
  endfacet
  facet normal -0 0 1
    outer loop
      vertex 1.99172 1.67125 1
      vertex 3.7 0 1
      vertex 2 16.5 1
    endloop
  endfacet
  facet normal 0 0 1
    outer loop
      vertex 3.7 0 1
      vertex 1.99172 1.67125 1
      vertex 2.6 0 1
    endloop
  endfacet
  facet normal -0 0 1
    outer loop
      vertex -1.80194 17.3678 1
      vertex 2 16.5 1
      vertex 1.24698 18.0637 1
    endloop
  endfacet
  facet normal 0 0 1
    outer loop
      vertex 2 16.5 1
      vertex 0.451485 2.5605 1
      vertex 1.99172 1.67125 1
    endloop
  endfacet
  facet normal 0 0 1
    outer loop
      vertex -1.80194 17.3678 1
      vertex 1.24698 18.0637 1
      vertex -0.445042 18.4499 1
    endloop
  endfacet
  facet normal 0 0 1
    outer loop
      vertex 2 16.5 1
      vertex -1.80194 17.3678 1
      vertex 0.451485 2.5605 1
    endloop
  endfacet
  facet normal 0 0 1
    outer loop
      vertex 0.451485 2.5605 1
      vertex -1.80194 17.3678 1
      vertex -1.3 2.25167 1
    endloop
  endfacet
  facet normal 0 0 1
    outer loop
      vertex -3.7 0 1
      vertex -1.3 2.25167 1
      vertex -1.80194 17.3678 1
    endloop
  endfacet
  facet normal -0 0 1
    outer loop
      vertex -3.7 0 1
      vertex -2.4432 -0.889252 1
      vertex -2.4432 0.889252 1
    endloop
  endfacet
  facet normal 0 0 1
    outer loop
      vertex -1.3 2.25167 1
      vertex -3.7 0 1
      vertex -2.4432 0.889252 1
    endloop
  endfacet
  facet normal 0 0 1
    outer loop
      vertex -2.4432 -0.889252 1
      vertex -3.7 0 1
      vertex -3.20429 -1.85 1
    endloop
  endfacet
  facet normal -0 0 1
    outer loop
      vertex 1.99172 -1.67125 1
      vertex 3.20429 -1.85 1
      vertex 2.6 0 1
    endloop
  endfacet
  facet normal 0 0 1
    outer loop
      vertex 1.99172 -1.67125 1
      vertex 1.85 -3.20429 1
      vertex 3.20429 -1.85 1
    endloop
  endfacet
  facet normal -0 0 1
    outer loop
      vertex 0.451485 -2.5605 1
      vertex 1.85 -3.20429 1
      vertex 1.99172 -1.67125 1
    endloop
  endfacet
  facet normal 0 0 1
    outer loop
      vertex 0.451485 -2.5605 1
      vertex 0 -3.7 1
      vertex 1.85 -3.20429 1
    endloop
  endfacet
  facet normal 0 0 1
    outer loop
      vertex -1.3 -2.25167 1
      vertex 0 -3.7 1
      vertex 0.451485 -2.5605 1
    endloop
  endfacet
  facet normal 0 0 1
    outer loop
      vertex -1.3 -2.25167 1
      vertex -1.85 -3.20429 1
      vertex 0 -3.7 1
    endloop
  endfacet
  facet normal -0 0 1
    outer loop
      vertex -3.20429 -1.85 1
      vertex -1.3 -2.25167 1
      vertex -2.4432 -0.889252 1
    endloop
  endfacet
  facet normal 0 0 1
    outer loop
      vertex -1.3 -2.25167 1
      vertex -3.20429 -1.85 1
      vertex -1.85 -3.20429 1
    endloop
  endfacet
  facet normal -0.222521 -0.974928 0
    outer loop
      vertex -0.445042 18.4499 1
      vertex 1.24698 18.0637 3
      vertex -0.445042 18.4499 3
    endloop
  endfacet
  facet normal -0.222521 -0.974928 -0
    outer loop
      vertex 1.24698 18.0637 3
      vertex -0.445042 18.4499 1
      vertex 1.24698 18.0637 1
    endloop
  endfacet
  facet normal -0.258819 0.965926 0
    outer loop
      vertex 1.85 -3.20429 1
      vertex 0 -3.7 3
      vertex 1.85 -3.20429 3
    endloop
  endfacet
  facet normal -0.258819 0.965926 0
    outer loop
      vertex 0 -3.7 3
      vertex 1.85 -3.20429 1
      vertex 0 -3.7 1
    endloop
  endfacet
  facet normal 0.707107 0.707107 0
    outer loop
      vertex -1.85 -3.20429 3
      vertex -3.20429 -1.85 1
      vertex -3.20429 -1.85 3
    endloop
  endfacet
  facet normal 0.707107 0.707107 0
    outer loop
      vertex -3.20429 -1.85 1
      vertex -1.85 -3.20429 3
      vertex -1.85 -3.20429 1
    endloop
  endfacet
  facet normal 0.994081 -0.10864 0
    outer loop
      vertex -3.7 0 3
      vertex -1.80194 17.3678 1
      vertex -1.80194 17.3678 3
    endloop
  endfacet
  facet normal 0.994081 -0.10864 0
    outer loop
      vertex -1.80194 17.3678 1
      vertex -3.7 0 3
      vertex -3.7 0 1
    endloop
  endfacet
  facet normal 0.965926 0.258819 0
    outer loop
      vertex -3.20429 -1.85 3
      vertex -3.7 0 1
      vertex -3.7 0 3
    endloop
  endfacet
  facet normal 0.965926 0.258819 0
    outer loop
      vertex -3.7 0 1
      vertex -3.20429 -1.85 3
      vertex -3.20429 -1.85 1
    endloop
  endfacet
  facet normal -0.965926 0.258819 0
    outer loop
      vertex 3.20429 -1.85 1
      vertex 3.7 0 3
      vertex 3.7 0 1
    endloop
  endfacet
  facet normal -0.965926 0.258819 0
    outer loop
      vertex 3.7 0 3
      vertex 3.20429 -1.85 1
      vertex 3.20429 -1.85 3
    endloop
  endfacet
  facet normal -0.900969 -0.433884 0
    outer loop
      vertex 2 16.5 1
      vertex 1.24698 18.0637 3
      vertex 1.24698 18.0637 1
    endloop
  endfacet
  facet normal -0.900969 -0.433884 0
    outer loop
      vertex 1.24698 18.0637 3
      vertex 2 16.5 1
      vertex 2 16.5 3
    endloop
  endfacet
  facet normal 0.258819 0.965926 -0
    outer loop
      vertex 0 -3.7 1
      vertex -1.85 -3.20429 3
      vertex 0 -3.7 3
    endloop
  endfacet
  facet normal 0.258819 0.965926 0
    outer loop
      vertex -1.85 -3.20429 3
      vertex 0 -3.7 1
      vertex -1.85 -3.20429 1
    endloop
  endfacet
  facet normal -0.707107 0.707107 0
    outer loop
      vertex 1.85 -3.20429 1
      vertex 3.20429 -1.85 3
      vertex 3.20429 -1.85 1
    endloop
  endfacet
  facet normal -0.707107 0.707107 0
    outer loop
      vertex 3.20429 -1.85 3
      vertex 1.85 -3.20429 1
      vertex 1.85 -3.20429 3
    endloop
  endfacet
  facet normal -0.939693 -0.34202 0
    outer loop
      vertex 2.6 0 -2
      vertex 1.99172 1.67125 1
      vertex 1.99172 1.67125 -2
    endloop
  endfacet
  facet normal -0.939693 -0.34202 0
    outer loop
      vertex 1.99172 1.67125 1
      vertex 2.6 0 -2
      vertex 2.6 0 1
    endloop
  endfacet
  facet normal 1 -0 0
    outer loop
      vertex -2.4432 -0.889252 1
      vertex -2.4432 0.889252 -2
      vertex -2.4432 0.889252 1
    endloop
  endfacet
  facet normal 1 0 0
    outer loop
      vertex -2.4432 0.889252 -2
      vertex -2.4432 -0.889252 1
      vertex -2.4432 -0.889252 -2
    endloop
  endfacet
  facet normal 0.173649 -0.984808 0
    outer loop
      vertex -1.3 2.25167 -2
      vertex 0.451485 2.5605 1
      vertex -1.3 2.25167 1
    endloop
  endfacet
  facet normal 0.173649 -0.984808 0
    outer loop
      vertex 0.451485 2.5605 1
      vertex -1.3 2.25167 -2
      vertex 0.451485 2.5605 -2
    endloop
  endfacet
  facet normal -0.5 -0.866025 0
    outer loop
      vertex 0.451485 2.5605 -2
      vertex 1.99172 1.67125 1
      vertex 0.451485 2.5605 1
    endloop
  endfacet
  facet normal -0.5 -0.866025 -0
    outer loop
      vertex 1.99172 1.67125 1
      vertex 0.451485 2.5605 -2
      vertex 1.99172 1.67125 -2
    endloop
  endfacet
  facet normal 0.766044 -0.642788 0
    outer loop
      vertex -2.4432 0.889252 1
      vertex -1.3 2.25167 -2
      vertex -1.3 2.25167 1
    endloop
  endfacet
  facet normal 0.766044 -0.642788 0
    outer loop
      vertex -1.3 2.25167 -2
      vertex -2.4432 0.889252 1
      vertex -2.4432 0.889252 -2
    endloop
  endfacet
  facet normal -0.5 0.866025 0
    outer loop
      vertex 1.99172 -1.67125 -2
      vertex 0.451485 -2.5605 1
      vertex 1.99172 -1.67125 1
    endloop
  endfacet
  facet normal -0.5 0.866025 0
    outer loop
      vertex 0.451485 -2.5605 1
      vertex 1.99172 -1.67125 -2
      vertex 0.451485 -2.5605 -2
    endloop
  endfacet
  facet normal 0.766044 0.642788 0
    outer loop
      vertex -1.3 -2.25167 1
      vertex -2.4432 -0.889252 -2
      vertex -2.4432 -0.889252 1
    endloop
  endfacet
  facet normal 0.766044 0.642788 0
    outer loop
      vertex -2.4432 -0.889252 -2
      vertex -1.3 -2.25167 1
      vertex -1.3 -2.25167 -2
    endloop
  endfacet
  facet normal -0.939693 0.34202 0
    outer loop
      vertex 1.99172 -1.67125 -2
      vertex 2.6 0 1
      vertex 2.6 0 -2
    endloop
  endfacet
  facet normal -0.939693 0.34202 0
    outer loop
      vertex 2.6 0 1
      vertex 1.99172 -1.67125 -2
      vertex 1.99172 -1.67125 1
    endloop
  endfacet
  facet normal 0.173649 0.984808 -0
    outer loop
      vertex 0.451485 -2.5605 -2
      vertex -1.3 -2.25167 1
      vertex 0.451485 -2.5605 1
    endloop
  endfacet
  facet normal 0.173649 0.984808 0
    outer loop
      vertex -1.3 -2.25167 1
      vertex 0.451485 -2.5605 -2
      vertex -1.3 -2.25167 -2
    endloop
  endfacet
endsolid OpenSCAD_Model
